<?xml version="1.0" encoding="UTF-8" standalone="no"?>
<!-- Generator: Adobe Illustrator 15.0.0, SVG Export Plug-In . SVG Version: 6.00 Build 0)  -->

<svg
   xmlns:dc="http://purl.org/dc/elements/1.1/"
   xmlns:cc="http://creativecommons.org/ns#"
   xmlns:rdf="http://www.w3.org/1999/02/22-rdf-syntax-ns#"
   xmlns:svg="http://www.w3.org/2000/svg"
   xmlns="http://www.w3.org/2000/svg"
   xmlns:sodipodi="http://sodipodi.sourceforge.net/DTD/sodipodi-0.dtd"
   xmlns:inkscape="http://www.inkscape.org/namespaces/inkscape"
   version="1.1"
   x="0px"
   y="0px"
   width="40px"
   height="40px"
   viewBox="0 0 40 40"
   enable-background="new 0 0 40 40"
   xml:space="preserve"
   id="svg2"
   inkscape:version="0.92.2 (5c3e80d, 2017-08-06)"
   sodipodi:docname="cricket.svg"
   inkscape:export-filename="G:\LGV_G3\Icons\sportanlagen\symbole_sportstaetten\cricket.png"
   inkscape:export-xdpi="90"
   inkscape:export-ydpi="90"><metadata
     id="metadata29"><rdf:RDF><cc:Work
         rdf:about=""><dc:format>image/svg+xml</dc:format><dc:type
           rdf:resource="http://purl.org/dc/dcmitype/StillImage" /><dc:title></dc:title></cc:Work></rdf:RDF></metadata><defs
     id="defs27" /><sodipodi:namedview
     pagecolor="#ffffff"
     bordercolor="#666666"
     borderopacity="1"
     objecttolerance="10"
     gridtolerance="10"
     guidetolerance="10"
     inkscape:pageopacity="0"
     inkscape:pageshadow="2"
     inkscape:window-width="1623"
     inkscape:window-height="868"
     id="namedview25"
     showgrid="false"
     inkscape:zoom="17.9"
     inkscape:cx="10.502793"
     inkscape:cy="20"
     inkscape:window-x="15"
     inkscape:window-y="17"
     inkscape:window-maximized="0"
     inkscape:current-layer="svg2"
     inkscape:snap-others="false"
     inkscape:snap-nodes="false"
     inkscape:snap-global="false" /><g
     id="Ebene_1"><g
       id="XMLID_1_"><g
         id="g6"><path
           fill="#F2F9D7"
           d="M20,1c10.49,0,19,8.51,19,19s-8.51,19-19,19S1,30.49,1,20S9.51,1,20,1z"
           id="path8" /></g><g
         id="g10"><path
           fill="none"
           stroke="#4D6523"
           stroke-width="2"
           stroke-miterlimit="10"
           d="M39,20c0,10.49-8.51,19-19,19S1,30.49,1,20     S9.51,1,20,1S39,9.51,39,20z"
           id="path12" /></g></g><g
       id="Ebene_6"><path
         fill="#85A044"
         d="M37.721,20.469c-0.677,9.741-8.056,17.549-17.618,17.549S1.955,29.47,1.955,20.475    c0-3.246,0.479-3.972,0.479-3.972s1.667,0.296,1.878-0.727c0.95-4.581,7.997-15.503,21.62-11.005    c0.588,0.194,1.285-1.281,1.285-1.281s1.988,0.919,3.033,1.673C30.622,5.432,38.484,9.485,37.721,20.469z"
         id="path15" /></g><g
       id="Ebene_2"><path
         fill="#6E8630"
         d="M36.823,13.553c0,0,1.671,3.403,1.307,7.235c-1.228,12.915-11.927,17.413-17.364,17.365    C5.31,38.019,2.435,24.181,2.435,24.181c0-0.886,3.266-2.364,7.903-2.812c4.645-0.448,7.399,1.898,9.888,0.279    c0.438-0.285,3.713-4.138,5.81-5.419C28.916,14.47,33.307,13.553,36.823,13.553z"
         id="path18" /></g></g><g
     transform="translate(0.23923448,-0.73291913)"
     id="Ebene_6-4" /><g
     inkscape:groupmode="layer"
     id="layer1"
     inkscape:label="Layer 1"><path
       d="m 14.48116,8.9685186 c 0,-0.9970816 0.807223,-1.8033616 1.803048,-1.8033616 0.99614,0 1.80242,0.80628 1.80242,1.8033616 0,0.994884 -0.80628,1.8021084 -1.80242,1.8021084 -0.995825,0 -1.803048,-0.8072244 -1.803048,-1.8021084 z"
       id="path4060"
       style="display:inline;fill:#ffffff;fill-opacity:1;stroke:#ffffff;stroke-width:0.31433895;stroke-opacity:1"
       inkscape:connector-curvature="0" /><path
       d="m 18.945168,13.301462 c -1.442745,-1.778574 -4.441521,-2.054396 -4.866829,-1.253558 -0.328633,0.616864 -1.032084,9.470108 -0.650179,9.633319 0.735228,0.313685 3.510274,0.659324 4.619411,-1.142002 0.366759,-0.594885 0.981199,-7.13476 0.897595,-7.237759 z"
       id="path4062"
       style="clip-rule:evenodd;display:inline;fill:#ffffff;fill-opacity:1;fill-rule:evenodd;stroke:#ffffff;stroke-width:0.32395604;stroke-opacity:1"
       inkscape:connector-curvature="0"
       sodipodi:nodetypes="cccccc" /><circle
       cx="34.103313"
       cy="18.987375"
       id="circle4070"
       r="1.0859404"
       style="display:inline;fill:#ffffff;fill-opacity:1;stroke:#ffffff;stroke-width:0.25073668;stroke-opacity:1" /><path
       d="m 16.402139,21.06582 4.656877,3.669876 -0.681785,5.579117"
       id="path4147"
       stroke-miterlimit="3.8637"
       style="clip-rule:evenodd;display:inline;fill:none;stroke:#ffffff;stroke-width:2.375;stroke-linecap:round;stroke-miterlimit:3.86369991;stroke-dasharray:none;stroke-opacity:1"
       inkscape:connector-curvature="0"
       sodipodi:nodetypes="ccc" /><path
       style="fill:none;fill-rule:evenodd;stroke:#ffffff;stroke-width:1.96433043;stroke-linecap:round;stroke-linejoin:miter;stroke-miterlimit:4;stroke-dasharray:none;stroke-opacity:1"
       d="m 15.833474,12.825112 4.953568,-0.333648 3.770449,1.833602"
       id="path4581"
       inkscape:connector-curvature="0"
       sodipodi:nodetypes="ccc" /><path
       style="fill:none;fill-rule:evenodd;stroke:#ffffff;stroke-width:1.05328238;stroke-linecap:butt;stroke-linejoin:miter;stroke-miterlimit:4;stroke-dasharray:none;stroke-opacity:1"
       d="m 22.971911,13.88989 3.325057,4.605316"
       id="path4583"
       inkscape:connector-curvature="0"
       sodipodi:nodetypes="cc"
       inkscape:transform-center-x="0.9908321"
       inkscape:transform-center-y="2.1378489" /><path
       style="fill:none;fill-rule:evenodd;stroke:#ffffff;stroke-width:2.00356936;stroke-linecap:round;stroke-linejoin:miter;stroke-miterlimit:4;stroke-dasharray:none;stroke-opacity:1"
       d="m 23.843705,16.796796 -3.312122,0.193929 -5.886182,-3.97289"
       id="path4581-3"
       inkscape:connector-curvature="0"
       sodipodi:nodetypes="ccc" /><path
       style="fill:none;fill-rule:evenodd;stroke:#fbfbfb;stroke-width:2.67700005;stroke-linecap:butt;stroke-linejoin:miter;stroke-miterlimit:4;stroke-dasharray:none;stroke-opacity:1"
       d="m 26.1543,18.197819 5.826846,8.965972"
       id="path845"
       inkscape:connector-curvature="0"
       sodipodi:nodetypes="cc" /></g><path
     d="m 14.898362,21.465014 -1.630147,4.57044 -5.1961163,2.087981"
     id="path4155"
     stroke-miterlimit="3.8637"
     style="clip-rule:evenodd;display:inline;fill:none;stroke:#ffffff;stroke-width:2.70510316;stroke-linecap:round;stroke-miterlimit:3.86369991;stroke-dasharray:none;stroke-opacity:1"
     inkscape:connector-curvature="0"
     sodipodi:nodetypes="ccc" /></svg>