<?xml version="1.0" encoding="UTF-8" standalone="no"?>
<!-- Generator: Adobe Illustrator 15.0.0, SVG Export Plug-In . SVG Version: 6.00 Build 0)  -->

<svg
   xmlns:dc="http://purl.org/dc/elements/1.1/"
   xmlns:cc="http://creativecommons.org/ns#"
   xmlns:rdf="http://www.w3.org/1999/02/22-rdf-syntax-ns#"
   xmlns:svg="http://www.w3.org/2000/svg"
   xmlns="http://www.w3.org/2000/svg"
   xmlns:sodipodi="http://sodipodi.sourceforge.net/DTD/sodipodi-0.dtd"
   xmlns:inkscape="http://www.inkscape.org/namespaces/inkscape"
   version="1.1"
   x="0px"
   y="0px"
   width="40px"
   height="40px"
   viewBox="0 0 40 40"
   enable-background="new 0 0 40 40"
   xml:space="preserve"
   id="svg2"
   inkscape:version="0.92.2 (5c3e80d, 2017-08-06)"
   sodipodi:docname="curling.svg"
   inkscape:export-filename="G:\LGV_G3\Icons\sportanlagen\symbole_sportstaetten\curling.png"
   inkscape:export-xdpi="90"
   inkscape:export-ydpi="90"><metadata
     id="metadata29"><rdf:RDF><cc:Work
         rdf:about=""><dc:format>image/svg+xml</dc:format><dc:type
           rdf:resource="http://purl.org/dc/dcmitype/StillImage" /><dc:title></dc:title></cc:Work></rdf:RDF></metadata><defs
     id="defs27" /><sodipodi:namedview
     pagecolor="#ffffff"
     bordercolor="#666666"
     borderopacity="1"
     objecttolerance="10"
     gridtolerance="10"
     guidetolerance="10"
     inkscape:pageopacity="0"
     inkscape:pageshadow="2"
     inkscape:window-width="1025"
     inkscape:window-height="868"
     id="namedview25"
     showgrid="false"
     inkscape:zoom="13.675"
     inkscape:cx="20"
     inkscape:cy="20"
     inkscape:window-x="612"
     inkscape:window-y="52"
     inkscape:window-maximized="0"
     inkscape:current-layer="svg2"
     inkscape:snap-others="false"
     inkscape:snap-nodes="false"
     inkscape:snap-global="false" /><g
     id="Ebene_1"><g
       id="XMLID_1_"><g
         id="g6"><path
           fill="#F2F9D7"
           d="M20,1c10.49,0,19,8.51,19,19s-8.51,19-19,19S1,30.49,1,20S9.51,1,20,1z"
           id="path8" /></g><g
         id="g10"><path
           fill="none"
           stroke="#4D6523"
           stroke-width="2"
           stroke-miterlimit="10"
           d="M39,20c0,10.49-8.51,19-19,19S1,30.49,1,20     S9.51,1,20,1S39,9.51,39,20z"
           id="path12" /></g></g><g
       id="Ebene_6"><path
         fill="#85A044"
         d="M37.721,20.469c-0.677,9.741-8.056,17.549-17.618,17.549S1.955,29.47,1.955,20.475    c0-3.246,0.479-3.972,0.479-3.972s1.667,0.296,1.878-0.727c0.95-4.581,7.997-15.503,21.62-11.005    c0.588,0.194,1.285-1.281,1.285-1.281s1.988,0.919,3.033,1.673C30.622,5.432,38.484,9.485,37.721,20.469z"
         id="path15" /></g><g
       id="Ebene_2"><path
         fill="#6E8630"
         d="M36.823,13.553c0,0,1.671,3.403,1.307,7.235c-1.228,12.915-11.927,17.413-17.364,17.365    C5.31,38.019,2.435,24.181,2.435,24.181c0-0.886,3.266-2.364,7.903-2.812c4.645-0.448,7.399,1.898,9.888,0.279    c0.438-0.285,3.713-4.138,5.81-5.419C28.916,14.47,33.307,13.553,36.823,13.553z"
         id="path18" /></g></g><g
     transform="translate(0.23923448,-0.73291913)"
     id="Ebene_6-4" /><g
     inkscape:groupmode="layer"
     id="layer1"
     inkscape:label="Layer 1"><path
       d="m 19.229763,13.32606 c 0,-0.997081 0.807223,-1.803361 1.803048,-1.803361 0.99614,0 1.80242,0.80628 1.80242,1.803361 0,0.994884 -0.80628,1.802109 -1.80242,1.802109 -0.995825,0 -1.803048,-0.807225 -1.803048,-1.802109 z"
       id="path4060"
       style="display:inline;fill:#ffffff;fill-opacity:1;stroke:#ffffff;stroke-width:0.31433895;stroke-opacity:1"
       inkscape:connector-curvature="0" /><path
       d="m 21.005392,19.539943 c 0.0685,-2.097516 -2.476078,-3.358937 -3.827989,-3.158312 -0.514876,0.269529 -3.419587,6.127274 -3.278062,6.457583 0.272732,0.635516 1.225395,2.201824 2.817458,1.497338 0.526053,-0.2324 3.365235,-3.767296 3.36917,-3.888794 z"
       id="path4062"
       style="clip-rule:evenodd;display:inline;fill:#ffffff;fill-opacity:1;fill-rule:evenodd;stroke:#ffffff;stroke-width:0.27486968;stroke-opacity:1"
       inkscape:connector-curvature="0"
       sodipodi:nodetypes="cccccc" /><path
       d="m 16.371001,24.051706 5.007779,1.391557 -3.707576,3.968178 2.751666,0.10138"
       id="path4147"
       stroke-miterlimit="3.8637"
       style="clip-rule:evenodd;display:inline;fill:none;stroke:#ffffff;stroke-width:2;stroke-linecap:round;stroke-linejoin:round;stroke-miterlimit:3.86369991;stroke-dasharray:none;stroke-opacity:1"
       inkscape:connector-curvature="0"
       sodipodi:nodetypes="cccc" /><path
       style="fill:none;fill-rule:evenodd;stroke:#ffffff;stroke-width:0.92699999;stroke-linecap:round;stroke-linejoin:miter;stroke-miterlimit:4;stroke-dasharray:none;stroke-opacity:1"
       d="m 28.496553,25.991236 3.09016,0.0013 0.08428,2.597073"
       id="path4581"
       inkscape:connector-curvature="0"
       sodipodi:nodetypes="ccc" /><path
       style="fill:none;fill-rule:evenodd;stroke:#ffffff;stroke-width:2.00356936;stroke-linecap:round;stroke-linejoin:miter;stroke-miterlimit:4;stroke-dasharray:none;stroke-opacity:1"
       d="m 27.139794,22.327523 -4.42944,-1.817244 -3.092886,-2.296913"
       id="path4581-3"
       inkscape:connector-curvature="0"
       sodipodi:nodetypes="ccc" /><path
       style="fill:#ffffff;fill-opacity:1;fill-rule:evenodd;stroke:none;stroke-width:1px;stroke-linecap:butt;stroke-linejoin:miter;stroke-opacity:1"
       d="m 27.374301,30.446928 4.748604,-0.111732 c 0,0 0.548264,-0.694153 0.167597,-1.564246 -0.391061,-0.893855 -1.664071,-0.776465 -2.849161,-0.773033 -1.140441,0.0033 -2.103438,-0.245291 -2.569833,0.661301 -0.457969,0.890215 -0.257625,1.796842 0.502793,1.78771 z"
       id="path832"
       inkscape:connector-curvature="0"
       sodipodi:nodetypes="ccsssc" /></g><path
     d="m 14.927244,23.448057 -3.383168,4.499869 -4.7759695,0.583489"
     id="path4155"
     stroke-miterlimit="3.8637"
     style="clip-rule:evenodd;display:inline;fill:none;stroke:#ffffff;stroke-width:2.28;stroke-linecap:round;stroke-miterlimit:3.86369991;stroke-dasharray:none;stroke-opacity:1"
     inkscape:connector-curvature="0"
     sodipodi:nodetypes="ccc" /></svg>