<?xml version="1.0" encoding="UTF-8" standalone="no"?>
<!-- Generator: Adobe Illustrator 15.0.0, SVG Export Plug-In . SVG Version: 6.00 Build 0)  -->

<svg
   xmlns:dc="http://purl.org/dc/elements/1.1/"
   xmlns:cc="http://creativecommons.org/ns#"
   xmlns:rdf="http://www.w3.org/1999/02/22-rdf-syntax-ns#"
   xmlns:svg="http://www.w3.org/2000/svg"
   xmlns="http://www.w3.org/2000/svg"
   xmlns:sodipodi="http://sodipodi.sourceforge.net/DTD/sodipodi-0.dtd"
   xmlns:inkscape="http://www.inkscape.org/namespaces/inkscape"
   version="1.1"
   x="0px"
   y="0px"
   width="40px"
   height="40px"
   viewBox="0 0 40 40"
   enable-background="new 0 0 40 40"
   xml:space="preserve"
   id="svg36"
   sodipodi:docname="einfeldhalle.svg"
   inkscape:export-filename="G:\LGV_G3\Icons\sportanlagen\symbole_sportanlagen\brauchen\einfeldhalle.png"
   inkscape:export-xdpi="90"
   inkscape:export-ydpi="90"
   inkscape:version="0.92.2 (5c3e80d, 2017-08-06)"><metadata
     id="metadata42"><rdf:RDF><cc:Work
         rdf:about=""><dc:format>image/svg+xml</dc:format><dc:type
           rdf:resource="http://purl.org/dc/dcmitype/StillImage" /><dc:title></dc:title></cc:Work></rdf:RDF></metadata><defs
     id="defs40" /><sodipodi:namedview
     pagecolor="#ffffff"
     bordercolor="#666666"
     borderopacity="1"
     objecttolerance="10"
     gridtolerance="10"
     guidetolerance="10"
     inkscape:pageopacity="0"
     inkscape:pageshadow="2"
     inkscape:window-width="1796"
     inkscape:window-height="991"
     id="namedview38"
     showgrid="false"
     inkscape:zoom="20.975"
     inkscape:cx="20"
     inkscape:cy="20"
     inkscape:window-x="1937"
     inkscape:window-y="16"
     inkscape:window-maximized="0"
     inkscape:current-layer="text4556" /><g
     id="Ebene_7"><path
       fill-rule="evenodd"
       clip-rule="evenodd"
       fill="#85A044"
       stroke="#4D6523"
       stroke-width="2"
       stroke-miterlimit="10"
       d="   M37.162,38.234c0,0.38-0.392,0.703-0.782,0.703H5.313c-0.387,0-1.111-0.607-1.111-0.987L3.938,20C3.938,19.34,2,19.125,2,19.125   S19.195,1.666,19.449,1.416c0.335-0.32,0.79-0.218,1.006-0.009C20.621,1.567,38.36,18.958,38.36,18.958s-1.296,0.499-1.254,1.117   L37.162,38.234z"
       id="path2" /></g><g
     id="Ebene_9"><polygon
       fill-rule="evenodd"
       clip-rule="evenodd"
       fill="#F2F9D7"
       points="20,2.369 3.958,18.583 5.486,20 21.575,3.933  "
       id="polygon5" /></g><g
     id="Ebene_8"><path
       fill-rule="evenodd"
       clip-rule="evenodd"
       fill="#6E8630"
       d="M36.103,37.915c-0.774,0.007-1.194,0.035-1.566,0.035H5.625   c-0.605,0.08-0.542-0.294-0.542-0.408l0.042-6.25c0-0.202,1.482-0.821,1.482-0.821s12.561-3.924,12.872-4.022   c0.318-0.098,0.75-0.065,0.955-0.004c0.205,0.064,14.516,4.568,14.516,4.568s1.114,0.233,1.152,0.425V37.915z"
       id="path8" /></g><path
     style="fill:none;fill-rule:evenodd;stroke:#b0d1b1;stroke-width:1.49565852;stroke-linecap:butt;stroke-linejoin:miter;stroke-miterlimit:4;stroke-dasharray:none;stroke-opacity:1"
     d="m 8.7308373,34.209442 10.3333697,-7.062981 13.257907,0.168167 -7.798769,6.894813 z"
     id="path4538"
     inkscape:connector-curvature="0"
     sodipodi:nodetypes="ccccc" /><g
     aria-label="1"
     style="font-style:normal;font-weight:bold;font-size:24px;line-height:125%;font-family:Sans;-inkscape-font-specification:'Sans Bold';letter-spacing:0px;word-spacing:0px;fill:#ffffff;fill-opacity:1;stroke:none;stroke-width:1px;stroke-linecap:butt;stroke-linejoin:miter;stroke-opacity:1"
     id="text4556"><path
       d="M 22.326668,32.033897 H 19.033699 V 19.623741 q -1.804687,1.6875 -4.253906,2.496094 v -2.988281 q 1.289062,-0.421875 2.800781,-1.59375 1.511719,-1.183594 2.074219,-2.753907 h 2.671875 z"
       style="font-style:normal;font-variant:normal;font-weight:bold;font-stretch:normal;font-family:Arial;-inkscape-font-specification:'Arial Bold';fill:#ffffff;fill-opacity:1"
       id="path4558" /></g></svg>