<?xml version="1.0" encoding="UTF-8" standalone="no"?>
<!-- Generator: Adobe Illustrator 15.0.0, SVG Export Plug-In . SVG Version: 6.00 Build 0)  -->

<svg
   xmlns:dc="http://purl.org/dc/elements/1.1/"
   xmlns:cc="http://creativecommons.org/ns#"
   xmlns:rdf="http://www.w3.org/1999/02/22-rdf-syntax-ns#"
   xmlns:svg="http://www.w3.org/2000/svg"
   xmlns="http://www.w3.org/2000/svg"
   xmlns:sodipodi="http://sodipodi.sourceforge.net/DTD/sodipodi-0.dtd"
   xmlns:inkscape="http://www.inkscape.org/namespaces/inkscape"
   version="1.1"
   id="Ebene_1"
   x="0px"
   y="0px"
   width="40px"
   height="40px"
   viewBox="0 0 40 40"
   enable-background="new 0 0 40 40"
   xml:space="preserve"
   inkscape:version="0.48.3.1 r9886"
   sodipodi:docname="sporthalle_2.svg"
   inkscape:export-filename="M:\Themen\Icons\Portale\sporthalle\sporthalle_3.png"
   inkscape:export-xdpi="90"
   inkscape:export-ydpi="90"><metadata
   id="metadata27"><rdf:RDF><cc:Work
       rdf:about=""><dc:format>image/svg+xml</dc:format><dc:type
         rdf:resource="http://purl.org/dc/dcmitype/StillImage" /><dc:title></dc:title></cc:Work></rdf:RDF></metadata><defs
   id="defs25" /><sodipodi:namedview
   pagecolor="#ffffff"
   bordercolor="#666666"
   borderopacity="1"
   objecttolerance="10"
   gridtolerance="10"
   guidetolerance="10"
   inkscape:pageopacity="0"
   inkscape:pageshadow="2"
   inkscape:window-width="1737"
   inkscape:window-height="974"
   id="namedview23"
   showgrid="false"
   inkscape:zoom="19.875"
   inkscape:cx="12.167989"
   inkscape:cy="20"
   inkscape:window-x="0"
   inkscape:window-y="0"
   inkscape:window-maximized="0"
   inkscape:current-layer="Ebene_1" />
<g
   id="Ebene_7">
	<path
   fill="#85A044"
   stroke="#4D6523"
   stroke-width="2"
   stroke-miterlimit="10"
   d="M37.162,38.234c0,0.379-0.393,0.703-0.782,0.703   H5.313c-0.387,0-1.111-0.607-1.111-0.987L3.938,20C3.938,19.34,2,19.125,2,19.125S19.195,1.666,19.449,1.416   c0.335-0.32,0.79-0.218,1.006-0.009c0.166,0.16,17.904,17.551,17.904,17.551s-1.295,0.499-1.254,1.117L37.162,38.234z"
   id="path4"
   style="fill:#efefef;fill-opacity:1;stroke:#b13404;stroke-opacity:1" />
</g>
<g
   id="Ebene_9">
	<polygon
   fill="#F2F9D7"
   points="20,2.369 3.958,18.583 5.486,20 21.575,3.933  "
   id="polygon7"
   style="fill:#cecece;fill-opacity:1" />
</g>
<g
   id="Ebene_8">
	<path
   fill="#6E8630"
   d="M36.104,37.915c-0.774,0.007-1.194,0.035-1.566,0.035H5.625c-0.605,0.079-0.542-0.294-0.542-0.408   l0.042-6.25c0-0.202,1.482-0.821,1.482-0.821s12.561-3.924,12.872-4.021c0.318-0.098,0.75-0.065,0.955-0.004   c0.205,0.063,14.516,4.568,14.516,4.568s1.114,0.232,1.151,0.424v6.478H36.104z"
   id="path10"
   style="fill:#dcdcdc;fill-opacity:1" />
</g>
<g
   id="Ebene_4">
	<path
   fill="#FFFFFF"
   d="M16.169,17.059l2.552-4.36c0,0,0.542-0.409,1.308,0.334c0.283,0.274-1.343,3.095-1.343,3.095l12.856,6.414   c0,0,0.683,0.276,0.416,1.208c-0.166,0.583-1.291,0.167-1.291,0.167l-6.399-2.692l-2.393,4.567L17.25,23.5l2.681-4.197   L16.169,17.059z"
   id="path13"
   style="fill:#000000;fill-opacity:1" />
	<path
   fill="#FFFFFF"
   d="M16.917,24.5l1.458,0.958l-3.114,5.453c0,0-0.655,0.644-1.238,0.258c-0.669-0.44-0.164-1.354-0.164-1.354   L16.917,24.5z"
   id="path15"
   style="fill:#000000;fill-opacity:1" />
	<path
   fill="#FFFFFF"
   d="M19.792,26l1.75,0.75l-4.083,8.458c0,0-0.75,1.167-1.542,0.709c-0.761-0.44-0.25-1.459-0.25-1.459   L19.792,26z"
   id="path17"
   style="fill:#000000;fill-opacity:1" />
	<circle
   fill="#FFFFFF"
   cx="24.713"
   cy="15.768"
   r="1.792"
   id="circle19"
   style="fill:#000000;fill-opacity:1" />
	<path
   fill="none"
   stroke="#FFFFFF"
   stroke-miterlimit="10"
   d="M21.803,11.496c-0.074,0.791-0.777,1.37-1.567,1.294   c-0.79-0.076-1.37-0.777-1.294-1.568c0.052-0.542,0.576-1.389,1.568-1.294C21.3,10.004,21.879,10.706,21.803,11.496z"
   id="path21"
   style="stroke:#000000;stroke-opacity:1" />
</g>
</svg>