<?xml version="1.0" encoding="UTF-8" standalone="no"?>
<!-- Generator: Adobe Illustrator 15.0.0, SVG Export Plug-In . SVG Version: 6.00 Build 0)  -->

<svg
   xmlns:dc="http://purl.org/dc/elements/1.1/"
   xmlns:cc="http://creativecommons.org/ns#"
   xmlns:rdf="http://www.w3.org/1999/02/22-rdf-syntax-ns#"
   xmlns:svg="http://www.w3.org/2000/svg"
   xmlns="http://www.w3.org/2000/svg"
   xmlns:sodipodi="http://sodipodi.sourceforge.net/DTD/sodipodi-0.dtd"
   xmlns:inkscape="http://www.inkscape.org/namespaces/inkscape"
   version="1.1"
   x="0px"
   y="0px"
   width="40px"
   height="40px"
   viewBox="0 0 40 40"
   enable-background="new 0 0 40 40"
   xml:space="preserve"
   id="svg2"
   inkscape:version="0.92.2 (5c3e80d, 2017-08-06)"
   sodipodi:docname="leichtatheletikanlage.svg"
   inkscape:export-filename="G:\LGV_G3\Icons\sportanlagen\symbole_sportstaetten\leichtathletikanlage.png"
   inkscape:export-xdpi="90"
   inkscape:export-ydpi="90"><metadata
     id="metadata29"><rdf:RDF><cc:Work
         rdf:about=""><dc:format>image/svg+xml</dc:format><dc:type
           rdf:resource="http://purl.org/dc/dcmitype/StillImage" /><dc:title></dc:title></cc:Work></rdf:RDF></metadata><defs
     id="defs27" /><sodipodi:namedview
     pagecolor="#ffffff"
     bordercolor="#666666"
     borderopacity="1"
     objecttolerance="10"
     gridtolerance="10"
     guidetolerance="10"
     inkscape:pageopacity="0"
     inkscape:pageshadow="2"
     inkscape:window-width="1622"
     inkscape:window-height="973"
     id="namedview25"
     showgrid="false"
     inkscape:zoom="20.525"
     inkscape:cx="23.16687"
     inkscape:cy="19.707674"
     inkscape:window-x="12"
     inkscape:window-y="5"
     inkscape:window-maximized="0"
     inkscape:current-layer="svg2" /><g
     id="Ebene_1"
     transform="translate(0,0.51582649)"><g
       id="XMLID_1_"><g
         id="g6"><path
           d="M 20,1 C 30.49,1 39,9.51 39,20 39,30.49 30.49,39 20,39 9.51,39 1,30.49 1,20 1,9.51 9.51,1 20,1 Z"
           id="path8"
           inkscape:connector-curvature="0"
           style="fill:#f2f9d7" /></g><g
         id="g10"><path
           stroke-miterlimit="10"
           d="M 39,20 C 39,30.49 30.49,39 20,39 9.51,39 1,30.49 1,20 1,9.51 9.51,1 20,1 30.49,1 39,9.51 39,20 Z"
           id="path12"
           inkscape:connector-curvature="0"
           style="fill:none;stroke:#4d6523;stroke-width:2;stroke-miterlimit:10" /></g></g><g
       id="Ebene_6"><path
         d="m 37.721,20.469 c -0.677,9.741 -8.056,17.549 -17.618,17.549 -9.562,0 -18.148,-8.548 -18.148,-17.543 0,-3.246 0.479,-3.972 0.479,-3.972 0,0 1.667,0.296 1.878,-0.727 0.95,-4.581 7.997,-15.503 21.62,-11.005 0.588,0.194 1.285,-1.281 1.285,-1.281 0,0 1.988,0.919 3.033,1.673 0.372,0.269 8.234,4.322 7.471,15.306 z"
         id="path15"
         inkscape:connector-curvature="0"
         style="fill:#85a044" /></g><g
       id="Ebene_2"><path
         d="m 36.823,13.553 c 0,0 1.671,3.403 1.307,7.235 C 36.902,33.703 26.203,38.201 20.766,38.153 5.31,38.019 2.435,24.181 2.435,24.181 c 0,-0.886 3.266,-2.364 7.903,-2.812 4.645,-0.448 7.399,1.898 9.888,0.279 0.438,-0.285 3.713,-4.138 5.81,-5.419 2.88,-1.759 7.271,-2.676 10.787,-2.676 z"
         id="path18"
         inkscape:connector-curvature="0"
         style="fill:#6e8630" /></g></g><path
     style="fill:#ffffff;fill-opacity:1;fill-rule:evenodd;stroke:none;stroke-width:0.87441981px;stroke-linecap:butt;stroke-linejoin:miter;stroke-opacity:1"
     d="m 19.721223,20.084069 4.72208,-0.116545 6.614326,3.128522 1.401171,-0.964049 0.816518,0.35142 -1.81442,2.59259 -3.630572,-1.738608 -3.572005,-1.340141 -6.114967,0.516473 z"
     id="path4538"
     inkscape:connector-curvature="0"
     sodipodi:nodetypes="cccccccccc" /><path
     style="fill:#ffffff;fill-opacity:1;fill-rule:evenodd;stroke:none;stroke-width:0.87441981px;stroke-linecap:butt;stroke-linejoin:miter;stroke-opacity:1"
     d="m 13.690941,20.802102 3.253181,1.376973 c 0,0 -1.053038,2.922654 -3.496472,3.943172 C 12.363705,26.574964 8.7632813,22.417205 8.163377,22.60729 7.1517455,22.927834 5.5525238,20.751868 5.5525238,20.751868 l 3.2424705,0.33238 c 0.7572342,-0.07052 2.3558487,1.777503 4.6299977,1.959799 z"
     id="path4542"
     inkscape:connector-curvature="0"
     sodipodi:nodetypes="ccsscccc" /><path
     style="fill:#ffffff;fill-opacity:1;fill-rule:evenodd;stroke:none;stroke-width:0.87441981px;stroke-linecap:butt;stroke-linejoin:miter;stroke-opacity:1"
     d="m 27.068437,17.426501 -3.225791,-0.603845 -1.670942,1.484544 -2.450481,1.776869 -1.577869,2.429662 -4.452413,-1.711629 3.435529,-3.372354 2.168781,-2.30049 -1.376963,-0.159153 -3.026099,4.194215 -1.751285,-0.930165 1.708145,-1.099393 2.300432,-4.264666 5.065279,0.251396 3.094344,1.226556 2.472208,1.899462 5.322026,0.168808 -1.513353,1.22165 z"
     id="path4544"
     inkscape:connector-curvature="0"
     sodipodi:nodetypes="ccccccccccccccccccc" /><path
     style="fill:#ffffff;fill-opacity:1;fill-rule:evenodd;stroke:none;stroke-width:1.11896574px;stroke-linecap:butt;stroke-linejoin:miter;stroke-opacity:1"
     d="m 19.653369,35.963824 4.350873,-0.06405 -0.0058,-9.361625 -3.245288,-2.259433 -1.012863,-0.155295 -0.13385,6.616934 -3.052833,0.101642 -0.09704,0.932422 4.118546,-0.04653 0.04065,-6.014236 2.374371,1.483801 -0.03788,7.61194 -3.386474,0.02658 z"
     id="path4546"
     inkscape:connector-curvature="0"
     sodipodi:nodetypes="cccccccccccccc" /><ellipse
     style="opacity:0.98999999;fill:#ffffff;fill-opacity:1;stroke:none;stroke-width:0.15918326;stroke-linecap:round;stroke-linejoin:miter;stroke-miterlimit:4;stroke-dasharray:none;stroke-opacity:1"
     id="path4548"
     cx="22.910549"
     cy="14.465436"
     rx="1.6092428"
     ry="1.5635544"
     transform="rotate(-6.9307363)" /><g
     inkscape:groupmode="layer"
     id="layer1"
     inkscape:label="Layer 1" /></svg>