<?xml version="1.0" encoding="UTF-8" standalone="no"?>
<!-- Generator: Adobe Illustrator 15.0.0, SVG Export Plug-In . SVG Version: 6.00 Build 0)  -->

<svg
   xmlns:dc="http://purl.org/dc/elements/1.1/"
   xmlns:cc="http://creativecommons.org/ns#"
   xmlns:rdf="http://www.w3.org/1999/02/22-rdf-syntax-ns#"
   xmlns:svg="http://www.w3.org/2000/svg"
   xmlns="http://www.w3.org/2000/svg"
   xmlns:sodipodi="http://sodipodi.sourceforge.net/DTD/sodipodi-0.dtd"
   xmlns:inkscape="http://www.inkscape.org/namespaces/inkscape"
   version="1.1"
   x="0px"
   y="0px"
   width="40px"
   height="40px"
   viewBox="0 0 40 40"
   enable-background="new 0 0 40 40"
   xml:space="preserve"
   id="svg2"
   inkscape:version="0.92.2 (5c3e80d, 2017-08-06)"
   sodipodi:docname="polofeld.svg"
   inkscape:export-filename="G:\LGV_G3\Icons\sportanlagen\symbole_sportstaetten\polofeld.png"
   inkscape:export-xdpi="90"
   inkscape:export-ydpi="90"><metadata
     id="metadata29"><rdf:RDF><cc:Work
         rdf:about=""><dc:format>image/svg+xml</dc:format><dc:type
           rdf:resource="http://purl.org/dc/dcmitype/StillImage" /><dc:title></dc:title></cc:Work></rdf:RDF></metadata><defs
     id="defs27" /><sodipodi:namedview
     pagecolor="#ffffff"
     bordercolor="#666666"
     borderopacity="1"
     objecttolerance="10"
     gridtolerance="10"
     guidetolerance="10"
     inkscape:pageopacity="0"
     inkscape:pageshadow="2"
     inkscape:window-width="1817"
     inkscape:window-height="1005"
     id="namedview25"
     showgrid="false"
     inkscape:zoom="21.325"
     inkscape:cx="20"
     inkscape:cy="20"
     inkscape:window-x="1975"
     inkscape:window-y="20"
     inkscape:window-maximized="0"
     inkscape:current-layer="layer1" /><g
     id="Ebene_1"><g
       id="XMLID_1_"><g
         id="g6"><path
           fill="#F2F9D7"
           d="M20,1c10.49,0,19,8.51,19,19s-8.51,19-19,19S1,30.49,1,20S9.51,1,20,1z"
           id="path8" /></g><g
         id="g10"><path
           fill="none"
           stroke="#4D6523"
           stroke-width="2"
           stroke-miterlimit="10"
           d="M39,20c0,10.49-8.51,19-19,19S1,30.49,1,20     S9.51,1,20,1S39,9.51,39,20z"
           id="path12" /></g></g><g
       id="Ebene_6"><path
         fill="#85A044"
         d="M37.721,20.469c-0.677,9.741-8.056,17.549-17.618,17.549S1.955,29.47,1.955,20.475    c0-3.246,0.479-3.972,0.479-3.972s1.667,0.296,1.878-0.727c0.95-4.581,7.997-15.503,21.62-11.005    c0.588,0.194,1.285-1.281,1.285-1.281s1.988,0.919,3.033,1.673C30.622,5.432,38.484,9.485,37.721,20.469z"
         id="path15" /></g><g
       id="Ebene_2"><path
         fill="#6E8630"
         d="M36.823,13.553c0,0,1.671,3.403,1.307,7.235c-1.228,12.915-11.927,17.413-17.364,17.365    C5.31,38.019,2.435,24.181,2.435,24.181c0-0.886,3.266-2.364,7.903-2.812c4.645-0.448,7.399,1.898,9.888,0.279    c0.438-0.285,3.713-4.138,5.81-5.419C28.916,14.47,33.307,13.553,36.823,13.553z"
         id="path18" /></g></g><g
     transform="translate(0.23923448,-0.73291913)"
     id="Ebene_6-4" /><g
     inkscape:groupmode="layer"
     id="layer1"
     inkscape:label="Layer 1"><circle
       cx="16.145763"
       cy="11.974747"
       id="circle4141"
       r="1.3322382"
       stroke-miterlimit="3.8637"
       style="display:inline;fill:#ffffff;fill-opacity:1;stroke:none;stroke-width:0.22796573;stroke-miterlimit:3.86369991;stroke-dasharray:none;stroke-opacity:1" /><path
       d="m 11.287658,15.094886 c 1.116744,-0.531763 3.823643,3.397843 5.567651,4.639469 1.744008,1.241627 3.95389,1.5922 5.569195,2.230448 2.582781,1.020524 3.029141,1.139146 4.865271,2.749291 0.918064,0.805072 1.23281,1.374621 1.832863,2.192722 0.600053,0.8181 0.969585,1.978537 2.747516,1.386252"
       id="path4143"
       stroke-miterlimit="3.8637"
       style="clip-rule:evenodd;display:inline;fill:none;stroke:#ffffff;stroke-width:1.82107913;stroke-miterlimit:3.86369991;stroke-dasharray:none;stroke-opacity:1"
       inkscape:connector-curvature="0"
       sodipodi:nodetypes="cssssc" /><path
       d="m 25.778353,20.31719 c 3.472708,0.332624 3.736682,2.809719 6.474699,2.901656"
       id="path4147"
       stroke-miterlimit="3.8637"
       style="clip-rule:evenodd;display:inline;fill:none;stroke:#ffffff;stroke-width:1.438;stroke-miterlimit:3.86369991;stroke-dasharray:none;stroke-opacity:1"
       inkscape:connector-curvature="0"
       sodipodi:nodetypes="cc" /><path
       d="m 25.024063,14.4445 c -5.859805,1.995145 -6.04548,-3.481313 -10.540956,3.320564"
       id="path4149"
       stroke-miterlimit="3.8637"
       style="clip-rule:evenodd;display:inline;fill:none;stroke:#ffffff;stroke-width:1.86818588;stroke-miterlimit:3.86369991;stroke-dasharray:none;stroke-opacity:1"
       inkscape:connector-curvature="0"
       sodipodi:nodetypes="cc" /><path
       d="m 18.386753,20.647152 c 1.459333,-0.115408 10.118693,-3.161982 7.976846,2.923762 -0.529573,1.504702 -2.235026,0.275631 -4.360321,0.413581 -4.452887,0.289031 -4.198551,0.431823 -5.616817,2.04402 -1.718952,1.953993 -4.077161,3.609041 -4.124741,5.155125"
       id="path4151"
       stroke-miterlimit="3.8637"
       style="clip-rule:evenodd;display:inline;fill:none;stroke:#ffffff;stroke-width:1.86818588;stroke-miterlimit:3.86369991;stroke-dasharray:none;stroke-opacity:1"
       inkscape:connector-curvature="0"
       sodipodi:nodetypes="csssc" /><path
       d="m 17.109637,22.964988 c -1.797755,1.032489 -1.974997,1.067191 -2.778843,1.222898 -3.619905,0.701185 -5.4515967,3.956656 -4.5407743,4.9508"
       id="path4153"
       stroke-miterlimit="3.8637"
       style="clip-rule:evenodd;display:inline;fill:none;stroke:#ffffff;stroke-width:1.86818588;stroke-miterlimit:3.86369991;stroke-dasharray:none;stroke-opacity:1"
       inkscape:connector-curvature="0"
       sodipodi:nodetypes="csc" /><path
       d="m 26.449466,24.295966 c -2.426885,2.270933 -2.579453,3.905188 -2.688476,7.601231"
       id="path4155"
       stroke-miterlimit="3.8637"
       style="clip-rule:evenodd;display:inline;fill:none;stroke:#ffffff;stroke-width:1.63808632;stroke-miterlimit:3.86369991;stroke-dasharray:none;stroke-opacity:1"
       inkscape:connector-curvature="0"
       sodipodi:nodetypes="cc" /><path
       style="fill:none;fill-rule:evenodd;stroke:#ffffff;stroke-width:2.87236452;stroke-linecap:butt;stroke-linejoin:miter;stroke-miterlimit:4;stroke-dasharray:none;stroke-opacity:1"
       d="m 17.471762,14.608786 2.705866,2.459427 0.590658,3.42723"
       id="path4569"
       inkscape:connector-curvature="0"
       sodipodi:nodetypes="ccc" /><path
       style="fill:none;fill-rule:evenodd;stroke:#ffffff;stroke-width:1.14894581px;stroke-linecap:butt;stroke-linejoin:miter;stroke-opacity:1"
       d="M 25.082513,13.652953 28.96172,8.2651646"
       id="path4571"
       inkscape:connector-curvature="0" /><path
       style="fill:none;fill-rule:evenodd;stroke:#ffffff;stroke-width:1.14894581px;stroke-linecap:butt;stroke-linejoin:miter;stroke-opacity:1"
       d="m 27.905117,7.2764074 2.556201,2.1132077"
       id="path4573"
       inkscape:connector-curvature="0"
       sodipodi:nodetypes="cc" /><path
       style="fill:#ffffff;fill-opacity:1;fill-rule:evenodd;stroke:#ffffff;stroke-width:0.69391519;stroke-linecap:butt;stroke-linejoin:miter;stroke-miterlimit:4;stroke-dasharray:none;stroke-opacity:1"
       d="m 11.792523,15.754189 -1.170212,2.304779 c 0,0 -1.4046798,2.236932 -1.1317251,2.344687 0.272955,0.107759 1.8407011,-0.526808 2.4412031,-1.011708 0.600503,-0.484902 1.334693,-1.374887 1.826013,-0.351207 0.49132,1.02368 0.218364,2.909406 0.545911,3.394306 0.327546,0.484901 1.856097,1.831848 1.856097,1.831848 0,0 2.456597,0.161634 3.930557,0.215512 1.473959,0.05387 4.468769,0.165631 5.506,-0.696423 1.03723,-0.862045 1.813837,-2.465759 0.990337,-2.96728 -0.823499,-0.50152 -2.674962,-1.239191 -4.421877,-1.077558 -1.746913,0.161633 -3.57222,1.040636 -4.718632,0.394102 -1.146412,-0.646535 -2.050661,-2.764725 -3.0333,-3.034114 -0.982639,-0.26939 -2.620372,-1.346947 -2.620372,-1.346947 z"
       id="path4575"
       inkscape:connector-curvature="0"
       sodipodi:nodetypes="cccssccccsssscc" /></g></svg>