<?xml version="1.0" encoding="UTF-8" standalone="no"?>
<!-- Generator: Adobe Illustrator 15.0.0, SVG Export Plug-In . SVG Version: 6.00 Build 0)  -->

<svg
   xmlns:dc="http://purl.org/dc/elements/1.1/"
   xmlns:cc="http://creativecommons.org/ns#"
   xmlns:rdf="http://www.w3.org/1999/02/22-rdf-syntax-ns#"
   xmlns:svg="http://www.w3.org/2000/svg"
   xmlns="http://www.w3.org/2000/svg"
   xmlns:sodipodi="http://sodipodi.sourceforge.net/DTD/sodipodi-0.dtd"
   xmlns:inkscape="http://www.inkscape.org/namespaces/inkscape"
   version="1.1"
   x="0px"
   y="0px"
   width="40px"
   height="40px"
   viewBox="0 0 40 40"
   enable-background="new 0 0 40 40"
   xml:space="preserve"
   id="svg2"
   inkscape:version="0.92.2 (5c3e80d, 2017-08-06)"
   sodipodi:docname="rugby.svg"
   inkscape:export-filename="G:\LGV_G3\Icons\sportanlagen\symbole_sportstaetten\rugby.png"
   inkscape:export-xdpi="90"
   inkscape:export-ydpi="90"><metadata
     id="metadata29"><rdf:RDF><cc:Work
         rdf:about=""><dc:format>image/svg+xml</dc:format><dc:type
           rdf:resource="http://purl.org/dc/dcmitype/StillImage" /><dc:title></dc:title></cc:Work></rdf:RDF></metadata><defs
     id="defs27" /><sodipodi:namedview
     pagecolor="#ffffff"
     bordercolor="#666666"
     borderopacity="1"
     objecttolerance="10"
     gridtolerance="10"
     guidetolerance="10"
     inkscape:pageopacity="0"
     inkscape:pageshadow="2"
     inkscape:window-width="1623"
     inkscape:window-height="868"
     id="namedview25"
     showgrid="false"
     inkscape:zoom="10.473011"
     inkscape:cx="11.697418"
     inkscape:cy="16.11849"
     inkscape:window-x="15"
     inkscape:window-y="17"
     inkscape:window-maximized="0"
     inkscape:current-layer="layer1" /><g
     id="Ebene_1"><g
       id="XMLID_1_"><g
         id="g6"><path
           fill="#F2F9D7"
           d="M20,1c10.49,0,19,8.51,19,19s-8.51,19-19,19S1,30.49,1,20S9.51,1,20,1z"
           id="path8" /></g><g
         id="g10"><path
           fill="none"
           stroke="#4D6523"
           stroke-width="2"
           stroke-miterlimit="10"
           d="M39,20c0,10.49-8.51,19-19,19S1,30.49,1,20     S9.51,1,20,1S39,9.51,39,20z"
           id="path12" /></g></g><g
       id="Ebene_6"><path
         fill="#85A044"
         d="M37.721,20.469c-0.677,9.741-8.056,17.549-17.618,17.549S1.955,29.47,1.955,20.475    c0-3.246,0.479-3.972,0.479-3.972s1.667,0.296,1.878-0.727c0.95-4.581,7.997-15.503,21.62-11.005    c0.588,0.194,1.285-1.281,1.285-1.281s1.988,0.919,3.033,1.673C30.622,5.432,38.484,9.485,37.721,20.469z"
         id="path15" /></g><g
       id="Ebene_2"><path
         fill="#6E8630"
         d="M36.823,13.553c0,0,1.671,3.403,1.307,7.235c-1.228,12.915-11.927,17.413-17.364,17.365    C5.31,38.019,2.435,24.181,2.435,24.181c0-0.886,3.266-2.364,7.903-2.812c4.645-0.448,7.399,1.898,9.888,0.279    c0.438-0.285,3.713-4.138,5.81-5.419C28.916,14.47,33.307,13.553,36.823,13.553z"
         id="path18" /></g></g><g
     transform="translate(0.23923448,-0.73291913)"
     id="Ebene_6-4" /><g
     inkscape:groupmode="layer"
     id="layer1"
     inkscape:label="Layer 1"><path
       d="m 26.979101,24.837983 c -0.483524,-1.10703 -2.031333,-2.948316 -2.453585,-3.603644 -0.421326,-0.655797 -2.098569,-2.39113 -2.914303,-2.97353 -0.815734,-0.582399 -3.606347,-3.086563 -4.852592,-3.812089 -0.597163,-0.347619 -4.199791,-2.846145 -4.199791,-2.846145 0,0 2.181134,0.747452 3.674834,1.451607 1.493345,0.704691 4.357774,2.179786 5.290863,3.058564 0.933912,0.879165 3.21761,3.00984 3.648792,3.586359 0.431468,0.576552 1.974213,3.102647 2.234191,3.819442 0.259658,0.717044 1.967079,5.399746 2.060974,5.895329 -2.85e-4,-3.4e-5 -2.007889,-3.468816 -2.489383,-4.575893 z"
       id="path3886"
       style="clip-rule:evenodd;display:inline;fill:#ffffff;fill-opacity:1;fill-rule:evenodd;stroke:#ffffff;stroke-width:0.28736731;stroke-opacity:1"
       inkscape:connector-curvature="0" /><path
       d="m 29.373644,29.240339 c 0,0 0.109918,-0.268083 0.276509,-1.015318 0.166696,-0.745775 0.394638,-1.699222 0.354171,-2.618483 -0.05028,-1.176033 -0.444358,-3.03874 -0.807429,-4.493921 -0.362751,-1.455432 -2.184142,-3.893581 -2.677108,-4.598546 -0.492681,-0.70493 -3.255583,-2.368943 -4.080886,-2.872031 -0.82559,-0.50312 -4.164116,-1.551463 -5.558494,-1.800191 -1.394596,-0.249332 -3.814647,0.02365 -3.814647,0.02365 0,0 -0.832991,1.472363 -0.929253,2.912928 -0.09627,1.440565 -0.426227,3.215612 0.642151,5.522949 1.069634,2.306623 2.89432,4.422431 4.51415,5.666873 1.621577,1.244361 4.200516,2.523495 5.704446,2.826254 1.503678,0.302444 4.644718,0.761366 6.092058,0.573623 z M 11.274506,10.439431 c 0,0 -1.3200091,3.591722 -0.383018,9.230718 0.496388,2.986548 3.957423,6.768786 5.492902,8.083807 1.535762,1.315052 5.066485,2.699196 5.809064,2.918768 1.375418,0.408244 4.871582,0.466869 5.821175,0.259009 0.948131,-0.207748 2.124325,0.256345 2.353629,-0.360595 0.2278,-0.618857 0.52357,-7.531461 -0.730577,-11.18025 -0.997613,-2.903463 -2.528184,-4.580574 -3.199875,-5.387574 -1.66528,-1.997581 -5.954853,-3.622363 -6.708925,-3.753881 -1.205156,-0.20969 -2.613554,-0.6780639 -5.958597,-0.3962932 -1.739936,0.146644 -2.495778,0.5862912 -2.495778,0.5862912 z"
       id="path3876"
       style="clip-rule:evenodd;display:inline;fill:#ffffff;fill-opacity:1;fill-rule:evenodd;stroke:none;stroke-width:0.28736731;stroke-opacity:1"
       inkscape:connector-curvature="0" /><line
       id="line3878"
       stroke-miterlimit="3.8637"
       style="clip-rule:evenodd;display:inline;fill:#ffffff;fill-opacity:1;stroke:#ffffff;stroke-width:1.25191581;stroke-miterlimit:3.86369991;stroke-opacity:1"
       x1="20.998604"
       x2="18.534048"
       y1="14.500717"
       y2="17.284531" /><line
       id="line3880"
       stroke-miterlimit="3.8637"
       style="clip-rule:evenodd;display:inline;fill:#ffffff;fill-opacity:1;stroke:#ffffff;stroke-width:1.25191581;stroke-miterlimit:3.86369991;stroke-opacity:1"
       x1="22.984137"
       x2="20.259285"
       y1="15.909696"
       y2="18.622156" /><line
       id="line3882"
       stroke-miterlimit="3.8637"
       style="clip-rule:evenodd;display:inline;fill:#ffffff;fill-opacity:1;stroke:#ffffff;stroke-width:1.25191581;stroke-miterlimit:3.86369991;stroke-opacity:1"
       x1="24.724562"
       x2="21.709145"
       y1="17.668283"
       y2="20.330057" /><line
       id="line3884"
       stroke-miterlimit="3.8637"
       style="clip-rule:evenodd;display:inline;fill:#ffffff;fill-opacity:1;stroke:#ffffff;stroke-width:1.25191581;stroke-miterlimit:3.86369991;stroke-opacity:1"
       x1="26.430683"
       x2="23.352438"
       y1="19.488153"
       y2="22.020479" /><line
       id="line3888"
       stroke-miterlimit="3.8637"
       style="clip-rule:evenodd;display:inline;fill:#ffffff;fill-opacity:1;stroke:#ffffff;stroke-width:1.25191581;stroke-miterlimit:3.86369991;stroke-opacity:1"
       x1="27.89402"
       x2="24.592888"
       y1="21.446598"
       y2="23.69355" /></g></svg>