<?xml version="1.0" encoding="UTF-8" standalone="no"?>
<!-- Generator: Adobe Illustrator 15.0.0, SVG Export Plug-In . SVG Version: 6.00 Build 0)  -->

<svg
   xmlns:dc="http://purl.org/dc/elements/1.1/"
   xmlns:cc="http://creativecommons.org/ns#"
   xmlns:rdf="http://www.w3.org/1999/02/22-rdf-syntax-ns#"
   xmlns:svg="http://www.w3.org/2000/svg"
   xmlns="http://www.w3.org/2000/svg"
   xmlns:sodipodi="http://sodipodi.sourceforge.net/DTD/sodipodi-0.dtd"
   xmlns:inkscape="http://www.inkscape.org/namespaces/inkscape"
   version="1.1"
   x="0px"
   y="0px"
   width="40px"
   height="40px"
   viewBox="0 0 40 40"
   enable-background="new 0 0 40 40"
   xml:space="preserve"
   id="svg2"
   inkscape:version="0.91 r13725"
   sodipodi:docname="tennisanlage_1.svg"
   inkscape:export-filename="G:\AG_GDI-HH\Icons\sportanlagen\tennisanlage_1.png"
   inkscape:export-xdpi="90"
   inkscape:export-ydpi="90"><metadata
     id="metadata29"><rdf:RDF><cc:Work
         rdf:about=""><dc:format>image/svg+xml</dc:format><dc:type
           rdf:resource="http://purl.org/dc/dcmitype/StillImage" /><dc:title></dc:title></cc:Work></rdf:RDF></metadata><defs
     id="defs27" /><sodipodi:namedview
     pagecolor="#ffffff"
     bordercolor="#666666"
     borderopacity="1"
     objecttolerance="10"
     gridtolerance="10"
     guidetolerance="10"
     inkscape:pageopacity="0"
     inkscape:pageshadow="2"
     inkscape:window-width="1817"
     inkscape:window-height="1005"
     id="namedview25"
     showgrid="false"
     inkscape:zoom="20.9"
     inkscape:cx="20"
     inkscape:cy="20"
     inkscape:window-x="1975"
     inkscape:window-y="20"
     inkscape:window-maximized="0"
     inkscape:current-layer="svg2" /><g
     id="Ebene_1"><g
       id="XMLID_1_"><g
         id="g6"><path
           fill="#F2F9D7"
           d="M20,1c10.49,0,19,8.51,19,19s-8.51,19-19,19S1,30.49,1,20S9.51,1,20,1z"
           id="path8" /></g><g
         id="g10"><path
           fill="none"
           stroke="#4D6523"
           stroke-width="2"
           stroke-miterlimit="10"
           d="M39,20c0,10.49-8.51,19-19,19S1,30.49,1,20     S9.51,1,20,1S39,9.51,39,20z"
           id="path12" /></g></g><g
       id="Ebene_6"><path
         fill="#85A044"
         d="M37.721,20.469c-0.677,9.741-8.056,17.549-17.618,17.549S1.955,29.47,1.955,20.475    c0-3.246,0.479-3.972,0.479-3.972s1.667,0.296,1.878-0.727c0.95-4.581,7.997-15.503,21.62-11.005    c0.588,0.194,1.285-1.281,1.285-1.281s1.988,0.919,3.033,1.673C30.622,5.432,38.484,9.485,37.721,20.469z"
         id="path15" /></g><g
       id="Ebene_2"><path
         fill="#6E8630"
         d="M36.823,13.553c0,0,1.671,3.403,1.307,7.235c-1.228,12.915-11.927,17.413-17.364,17.365    C5.31,38.019,2.435,24.181,2.435,24.181c0-0.886,3.266-2.364,7.903-2.812c4.645-0.448,7.399,1.898,9.888,0.279    c0.438-0.285,3.713-4.138,5.81-5.419C28.916,14.47,33.307,13.553,36.823,13.553z"
         id="path18" /></g></g><g
     transform="matrix(0.862938,0,0,0.862938,2.9292681,3.003609)"
     id="Ebene_5"><circle
       style="clip-rule:evenodd;fill:#ffffff;fill-rule:evenodd"
       cx="12.083"
       cy="13.25"
       r="3.375"
       id="circle14" /><path
       style="clip-rule:evenodd;fill:#ffffff;fill-rule:evenodd"
       inkscape:connector-curvature="0"
       d="m 32.572,8.162 c 2.896,2.833 2.031,8.418 -1.935,12.473 -4.073,4.168 -9.482,5.093 -12.425,2.216 C 15.314,20.02 16.18,14.434 20.146,10.378 24.111,6.322 29.674,5.329 32.572,8.162 Z"
       id="path16" /><polygon
       style="clip-rule:evenodd;fill:#ffffff;fill-rule:evenodd"
       points="18.956,21.459 20.208,23.25 21,24.125 18.667,24.542 10.021,35.173 7.82,33.156 17.278,23.29 17.245,21.542 "
       id="polygon18" /><polygon
       style="clip-rule:evenodd;fill:#85a044;fill-rule:evenodd"
       points="26.12,12.651 28.208,14.5 24.792,18.167 22.875,16.458 "
       id="polygon20" /><path
       style="clip-rule:evenodd;fill:#85a044;fill-rule:evenodd"
       inkscape:connector-curvature="0"
       d="m 23.833,19.417 -2.791,3.167 c 0,0 -0.965,-0.148 -1.25,-0.417 C 19.535,21.925 19,20.958 19,20.958 l 2.875,-3.167 1.958,1.626 z"
       id="path22" /><path
       style="clip-rule:evenodd;fill:#85a044;fill-rule:evenodd"
       inkscape:connector-curvature="0"
       d="m 31,17.5 c 0,0 -0.458,0.75 -1.583,2 -1.093,1.214 -1.875,1.584 -1.875,1.584 L 25.833,19.459 29.167,15.917 31,17.5 Z"
       id="path24" /><path
       style="clip-rule:evenodd;fill:#85a044;fill-rule:evenodd"
       inkscape:connector-curvature="0"
       d="m 24.958,11.667 -3.166,3.542 -1.958,-1.833 c 0,0 1.09,-1.562 1.542,-2.042 0.405,-0.431 1.75,-1.375 1.75,-1.375 l 1.832,1.708 z"
       id="path26" /><path
       style="clip-rule:evenodd;fill:#85a044;fill-rule:evenodd"
       inkscape:connector-curvature="0"
       d="m 28.208,7.958 -0.833,0.75 -1.495,1.64 -1.38,-1.306 c 0,0 1.101,-0.575 1.583,-0.75 0.916,-0.333 2.125,-0.334 2.125,-0.334 z"
       id="path28" /><path
       style="clip-rule:evenodd;fill:#85a044;fill-rule:evenodd"
       inkscape:connector-curvature="0"
       d="m 32.042,9.792 -3.162,3.557 -1.922,-1.807 3.167,-3.417 c 0,0 0.768,0.404 1.042,0.625 0.319,0.258 0.875,1.042 0.875,1.042 z"
       id="path30" /><path
       style="clip-rule:evenodd;fill:#85a044;fill-rule:evenodd"
       inkscape:connector-curvature="0"
       d="m 32.583,14.167 c -0.209,0.917 -0.875,2.042 -0.875,2.042 l -1.666,-1.5 1.666,-2.042 1,-1.125 c 0,0 0.297,0.772 -0.125,2.625 z"
       id="path32" /><path
       style="clip-rule:evenodd;fill:#85a044;fill-rule:evenodd"
       inkscape:connector-curvature="0"
       d="m 20.917,16.792 -2.708,2.917 c 0,0 -0.333,-0.458 -0.083,-2.583 0.157,-1.334 0.708,-2.458 0.708,-2.458 l 2.083,2.124 z"
       id="path34" /><path
       style="clip-rule:evenodd;fill:#85a044;fill-rule:evenodd"
       inkscape:connector-curvature="0"
       d="M 26.5,21.959 C 25.542,22.417 24.417,23 23.125,23 c -0.192,0 0.75,-1 0.75,-1 L 25,20.708 l 1.5,1.251 z"
       id="path36" /></g></svg>