<?xml version="1.0" encoding="UTF-8" standalone="no"?>
<!-- Generator: Adobe Illustrator 15.0.0, SVG Export Plug-In . SVG Version: 6.00 Build 0)  -->

<svg
   xmlns:dc="http://purl.org/dc/elements/1.1/"
   xmlns:cc="http://creativecommons.org/ns#"
   xmlns:rdf="http://www.w3.org/1999/02/22-rdf-syntax-ns#"
   xmlns:svg="http://www.w3.org/2000/svg"
   xmlns="http://www.w3.org/2000/svg"
   xmlns:sodipodi="http://sodipodi.sourceforge.net/DTD/sodipodi-0.dtd"
   xmlns:inkscape="http://www.inkscape.org/namespaces/inkscape"
   version="1.1"
   x="0px"
   y="0px"
   width="40px"
   height="40px"
   viewBox="0 0 40 40"
   enable-background="new 0 0 40 40"
   xml:space="preserve"
   id="svg2"
   inkscape:version="0.92.2 (5c3e80d, 2017-08-06)"
   sodipodi:docname="baseball.svg"
   inkscape:export-filename="C:\_Lokale_Daten_ungesichert\Corinna\baseball.png"
   inkscape:export-xdpi="90"
   inkscape:export-ydpi="90"><metadata
     id="metadata29"><rdf:RDF><cc:Work
         rdf:about=""><dc:format>image/svg+xml</dc:format><dc:type
           rdf:resource="http://purl.org/dc/dcmitype/StillImage" /><dc:title></dc:title></cc:Work></rdf:RDF></metadata><defs
     id="defs27" /><sodipodi:namedview
     pagecolor="#ffffff"
     bordercolor="#666666"
     borderopacity="1"
     objecttolerance="10"
     gridtolerance="10"
     guidetolerance="10"
     inkscape:pageopacity="0"
     inkscape:pageshadow="2"
     inkscape:window-width="1623"
     inkscape:window-height="868"
     id="namedview25"
     showgrid="false"
     inkscape:zoom="17.9"
     inkscape:cx="20"
     inkscape:cy="20"
     inkscape:window-x="15"
     inkscape:window-y="17"
     inkscape:window-maximized="0"
     inkscape:current-layer="layer1" /><g
     id="Ebene_1"><g
       id="XMLID_1_"><g
         id="g6"><path
           fill="#F2F9D7"
           d="M20,1c10.49,0,19,8.51,19,19s-8.51,19-19,19S1,30.49,1,20S9.51,1,20,1z"
           id="path8" /></g><g
         id="g10"><path
           fill="none"
           stroke="#4D6523"
           stroke-width="2"
           stroke-miterlimit="10"
           d="M39,20c0,10.49-8.51,19-19,19S1,30.49,1,20     S9.51,1,20,1S39,9.51,39,20z"
           id="path12" /></g></g><g
       id="Ebene_6"><path
         fill="#85A044"
         d="M37.721,20.469c-0.677,9.741-8.056,17.549-17.618,17.549S1.955,29.47,1.955,20.475    c0-3.246,0.479-3.972,0.479-3.972s1.667,0.296,1.878-0.727c0.95-4.581,7.997-15.503,21.62-11.005    c0.588,0.194,1.285-1.281,1.285-1.281s1.988,0.919,3.033,1.673C30.622,5.432,38.484,9.485,37.721,20.469z"
         id="path15" /></g><g
       id="Ebene_2"><path
         fill="#6E8630"
         d="M36.823,13.553c0,0,1.671,3.403,1.307,7.235c-1.228,12.915-11.927,17.413-17.364,17.365    C5.31,38.019,2.435,24.181,2.435,24.181c0-0.886,3.266-2.364,7.903-2.812c4.645-0.448,7.399,1.898,9.888,0.279    c0.438-0.285,3.713-4.138,5.81-5.419C28.916,14.47,33.307,13.553,36.823,13.553z"
         id="path18" /></g></g><g
     transform="translate(0.23923448,-0.73291913)"
     id="Ebene_6-4" /><g
     inkscape:groupmode="layer"
     id="layer1"
     inkscape:label="Layer 1"><path
       d="m 18.615238,12.599804 c 0,-0.997082 0.807223,-1.803362 1.803048,-1.803362 0.99614,0 1.80242,0.80628 1.80242,1.803362 0,0.994883 -0.80628,1.802107 -1.80242,1.802107 -0.995825,0 -1.803048,-0.807224 -1.803048,-1.802107 z"
       id="path4060"
       style="display:inline;fill:#ffffff;fill-opacity:1;stroke-width:0.31433895;stroke:#ffffff;stroke-opacity:1"
       inkscape:connector-curvature="0" /><path
       d="m 18.339562,16.196157 c 1.052093,-1.856171 3.589122,-0.804393 4.208056,-0.185461 0.477795,0.476538 3.134902,6.338645 2.784728,6.559311 -0.674257,0.424358 -2.846653,1.175628 -4.393829,-0.185774 -0.51143,-0.449505 -2.659936,-6.080573 -2.598955,-6.188076 z"
       id="path4062"
       style="clip-rule:evenodd;display:inline;fill:#ffffff;fill-opacity:1;fill-rule:evenodd;stroke-width:0.31433895;stroke:#ffffff;stroke-opacity:1"
       inkscape:connector-curvature="0" /><circle
       cx="30.220633"
       cy="20.132626"
       id="circle4070"
       r="1.3614018"
       style="display:inline;fill:#ffffff;fill-opacity:1;stroke-width:0.31433895;stroke:#ffffff;stroke-opacity:1" /><path
       d="m 24.77162,24.746605 c -0.390585,0.803899 -2.241914,3.004748 -1.220401,4.109701 0.725082,0.784307 2.585664,2.352728 3.708978,3.428514"
       id="path4147"
       stroke-miterlimit="3.8637"
       style="clip-rule:evenodd;display:inline;fill:none;stroke:#ffffff;stroke-width:2;stroke-linecap:round;stroke-miterlimit:3.86369991;stroke-dasharray:none;stroke-opacity:1"
       inkscape:connector-curvature="0"
       sodipodi:nodetypes="csc" /><path
       style="fill:none;fill-rule:evenodd;stroke:#ffffff;stroke-width:1.89999998;stroke-linecap:round;stroke-linejoin:miter;stroke-miterlimit:4;stroke-dasharray:none;stroke-opacity:1"
       d="M 19.497207,16.368715 15.0838,16.201117 10.446927,13.01676"
       id="path4581"
       inkscape:connector-curvature="0"
       sodipodi:nodetypes="ccc" /><path
       style="fill:none;fill-rule:evenodd;stroke:#ffffff;stroke-width:1.5;stroke-linecap:butt;stroke-linejoin:miter;stroke-miterlimit:4;stroke-dasharray:none;stroke-opacity:1"
       d="M 10,15.251396 21.452513,7.0391061"
       id="path4583"
       inkscape:connector-curvature="0"
       sodipodi:nodetypes="cc" /></g><path
     d="m 20.814039,24.937569 c -1.058166,1.181228 -2.247292,1.994723 -3.653921,3.460718 -1.104511,1.151126 -1.896449,2.012773 -3.795937,3.8508"
     id="path4155"
     stroke-miterlimit="3.8637"
     style="clip-rule:evenodd;display:inline;fill:none;stroke:#ffffff;stroke-width:1.99899995;stroke-linecap:round;stroke-miterlimit:3.86369991;stroke-dasharray:none;stroke-opacity:1"
     inkscape:connector-curvature="0"
     sodipodi:nodetypes="csc" /></svg>