<?xml version="1.0" encoding="UTF-8" standalone="no"?>
<!-- Generator: Adobe Illustrator 15.0.0, SVG Export Plug-In . SVG Version: 6.00 Build 0)  -->

<svg
   xmlns:dc="http://purl.org/dc/elements/1.1/"
   xmlns:cc="http://creativecommons.org/ns#"
   xmlns:rdf="http://www.w3.org/1999/02/22-rdf-syntax-ns#"
   xmlns:svg="http://www.w3.org/2000/svg"
   xmlns="http://www.w3.org/2000/svg"
   xmlns:sodipodi="http://sodipodi.sourceforge.net/DTD/sodipodi-0.dtd"
   xmlns:inkscape="http://www.inkscape.org/namespaces/inkscape"
   version="1.1"
   x="0px"
   y="0px"
   width="40px"
   height="40px"
   viewBox="0 0 40 40"
   enable-background="new 0 0 40 40"
   xml:space="preserve"
   id="svg2"
   inkscape:version="0.91 r13725"
   sodipodi:docname="beachanlage_1.svg"
   inkscape:export-filename="G:\AG_GDI-HH\Icons\sportanlagen\beachanlage_1.png"
   inkscape:export-xdpi="90"
   inkscape:export-ydpi="90"><metadata
     id="metadata29"><rdf:RDF><cc:Work
         rdf:about=""><dc:format>image/svg+xml</dc:format><dc:type
           rdf:resource="http://purl.org/dc/dcmitype/StillImage" /><dc:title></dc:title></cc:Work></rdf:RDF></metadata><defs
     id="defs27" /><sodipodi:namedview
     pagecolor="#ffffff"
     bordercolor="#666666"
     borderopacity="1"
     objecttolerance="10"
     gridtolerance="10"
     guidetolerance="10"
     inkscape:pageopacity="0"
     inkscape:pageshadow="2"
     inkscape:window-width="1817"
     inkscape:window-height="1005"
     id="namedview25"
     showgrid="false"
     inkscape:zoom="20.9"
     inkscape:cx="20"
     inkscape:cy="20"
     inkscape:window-x="1975"
     inkscape:window-y="20"
     inkscape:window-maximized="0"
     inkscape:current-layer="svg2" /><g
     id="Ebene_1"><g
       id="XMLID_1_"><g
         id="g6"><path
           fill="#F2F9D7"
           d="M20,1c10.49,0,19,8.51,19,19s-8.51,19-19,19S1,30.49,1,20S9.51,1,20,1z"
           id="path8" /></g><g
         id="g10"><path
           fill="none"
           stroke="#4D6523"
           stroke-width="2"
           stroke-miterlimit="10"
           d="M39,20c0,10.49-8.51,19-19,19S1,30.49,1,20     S9.51,1,20,1S39,9.51,39,20z"
           id="path12" /></g></g><g
       id="Ebene_6"><path
         fill="#85A044"
         d="M37.721,20.469c-0.677,9.741-8.056,17.549-17.618,17.549S1.955,29.47,1.955,20.475    c0-3.246,0.479-3.972,0.479-3.972s1.667,0.296,1.878-0.727c0.95-4.581,7.997-15.503,21.62-11.005    c0.588,0.194,1.285-1.281,1.285-1.281s1.988,0.919,3.033,1.673C30.622,5.432,38.484,9.485,37.721,20.469z"
         id="path15" /></g><g
       id="Ebene_2"><path
         fill="#6E8630"
         d="M36.823,13.553c0,0,1.671,3.403,1.307,7.235c-1.228,12.915-11.927,17.413-17.364,17.365    C5.31,38.019,2.435,24.181,2.435,24.181c0-0.886,3.266-2.364,7.903-2.812c4.645-0.448,7.399,1.898,9.888,0.279    c0.438-0.285,3.713-4.138,5.81-5.419C28.916,14.47,33.307,13.553,36.823,13.553z"
         id="path18" /></g></g><path
     id="path4235"
     d="m 9.1695286,13.096252 c 3.6491194,6.89e-4 9.3979334,-0.04432 10.7613754,-0.180037 2.178837,-0.216779 3.920917,-0.632885 5.722105,-1.220531"
     stroke-miterlimit="3.8637"
     inkscape:connector-curvature="0"
     style="clip-rule:evenodd;display:inline;fill:#ffffff;stroke:#ffffff;stroke-width:0.85115755;stroke-miterlimit:3.86369991;stroke-opacity:1;fill-opacity:1" /><path
     id="path4237"
     d="m 9.1695286,15.76213 c 3.6491194,6.89e-4 9.3979334,-0.04455 10.7613754,-0.180036 2.178837,-0.216779 3.920917,-0.632886 5.722105,-1.220532"
     stroke-miterlimit="3.8637"
     inkscape:connector-curvature="0"
     style="clip-rule:evenodd;display:inline;fill:#ffffff;stroke:#ffffff;stroke-width:0.85115755;stroke-miterlimit:3.86369991;stroke-opacity:1;fill-opacity:1" /><path
     id="path4239"
     d="m 9.1695286,18.222482 c 3.6491194,6.9e-4 9.3979334,-0.04455 10.7613754,-0.180266 2.178837,-0.21678 3.920917,-0.632886 5.722105,-1.220532"
     stroke-miterlimit="3.8637"
     inkscape:connector-curvature="0"
     style="clip-rule:evenodd;display:inline;fill:#ffffff;stroke:#ffffff;stroke-width:0.85115755;stroke-miterlimit:3.86369991;stroke-opacity:1;fill-opacity:1" /><path
     id="path4241"
     d="m 9.1695286,20.887673 c 3.6491194,6.9e-4 9.3979334,-0.04455 10.7613754,-0.180267 2.178837,-0.216779 3.920917,-0.632885 5.722105,-1.220531"
     stroke-miterlimit="3.8637"
     inkscape:connector-curvature="0"
     style="clip-rule:evenodd;display:inline;fill:#ffffff;stroke:#ffffff;stroke-width:0.85115755;stroke-miterlimit:3.86369991;stroke-opacity:1;fill-opacity:1" /><polygon
     transform="matrix(0.24731403,0,0,0.22963895,7.9280122,7.3472408)"
     id="polygon4243"
     points="78.456,87.247 70.385,87.247 70.385,9.29 70.385,9.29 78.456,9.29 "
     style="display:inline;fill:#ffffff;fill-opacity:1;stroke:#ffffff;stroke-opacity:1" /><path
     id="path4245"
     d="m 12.260459,13.09717 c 0,1.265771 0.168916,6.693517 0.120195,7.778561"
     stroke-miterlimit="3.8637"
     inkscape:connector-curvature="0"
     style="clip-rule:evenodd;display:inline;fill:#ffffff;stroke:#ffffff;stroke-width:0.85115755;stroke-miterlimit:3.86369991;stroke-opacity:1;fill-opacity:1" /><path
     id="path4247"
     d="m 14.938129,13.14218 c 0,1.26577 0.362315,6.648278 0.313594,7.733322"
     stroke-miterlimit="3.8637"
     inkscape:connector-curvature="0"
     style="clip-rule:evenodd;display:inline;fill:#ffffff;stroke:#ffffff;stroke-width:0.85115755;stroke-miterlimit:3.86369991;stroke-opacity:1;fill-opacity:1" /><path
     id="path4249"
     d="m 17.616045,13.051932 c 0,1.265769 0.333874,6.533688 0.285153,7.618961"
     stroke-miterlimit="3.8637"
     inkscape:connector-curvature="0"
     style="clip-rule:evenodd;display:inline;fill:#ffffff;stroke:#ffffff;stroke-width:0.85115755;stroke-miterlimit:3.86369991;stroke-opacity:1;fill-opacity:1" /><path
     id="path4251"
     d="m 20.293714,12.870976 c 0,1.26577 0.306422,6.714644 0.257949,7.799688"
     stroke-miterlimit="3.8637"
     inkscape:connector-curvature="0"
     style="clip-rule:evenodd;display:inline;fill:#ffffff;stroke:#ffffff;stroke-width:0.85115755;stroke-miterlimit:3.86369991;stroke-opacity:1;fill-opacity:1" /><path
     id="path4253"
     d="m 22.99834,12.464056 c 0,1.26577 0.251766,6.712117 0.203045,7.796932"
     stroke-miterlimit="3.8637"
     inkscape:connector-curvature="0"
     style="clip-rule:evenodd;display:inline;fill:#ffffff;stroke:#ffffff;stroke-width:0.85115755;stroke-miterlimit:3.86369991;stroke-opacity:1;fill-opacity:1" /><path
     id="path4257"
     d="M 31.761665,29.597878 9.1710126,29.281435 c 0,0 0.03809,-2.118648 0.382595,-2.118648 0.8277594,0 1.6067994,-0.639086 2.2396764,-0.639086 0.633123,0 1.558078,0.774802 2.190954,0.774802 0.632877,0 1.119591,-0.632885 1.752715,-0.632885 0.632876,0 1.606552,0.632885 2.33687,0.632885 0.730319,0 1.119591,-0.542407 1.801435,-0.587876 0.681598,-0.04501 0.82776,0.678125 1.801189,0.587876 0.973922,-0.09048 1.119838,-0.678124 1.801435,-0.678124 0.681597,0 1.223958,1.214331 2.729605,1.154855 1.708444,-0.06843 2.175621,-1.019138 2.857219,-1.019138 0.681597,0 1.071116,0.723133 1.509357,0.723133 0.43824,0 0.973923,-0.813611 1.460637,-0.768602 l -0.273035,2.887251 z"
     stroke-miterlimit="3.8637"
     inkscape:connector-curvature="0"
     style="clip-rule:evenodd;display:inline;fill:#ffffff;fill-opacity:1;stroke:#ffffff;stroke-width:1.06387556;stroke-miterlimit:3.86369991;stroke-opacity:1" /></svg>