<?xml version="1.0" encoding="UTF-8" standalone="no"?>
<!-- Generator: Adobe Illustrator 15.0.0, SVG Export Plug-In . SVG Version: 6.00 Build 0)  -->

<svg
   xmlns:dc="http://purl.org/dc/elements/1.1/"
   xmlns:cc="http://creativecommons.org/ns#"
   xmlns:rdf="http://www.w3.org/1999/02/22-rdf-syntax-ns#"
   xmlns:svg="http://www.w3.org/2000/svg"
   xmlns="http://www.w3.org/2000/svg"
   xmlns:sodipodi="http://sodipodi.sourceforge.net/DTD/sodipodi-0.dtd"
   xmlns:inkscape="http://www.inkscape.org/namespaces/inkscape"
   version="1.1"
   x="0px"
   y="0px"
   width="40px"
   height="40px"
   viewBox="0 0 40 40"
   enable-background="new 0 0 40 40"
   xml:space="preserve"
   id="svg36"
   sodipodi:docname="bewegungskita.svg"
   inkscape:export-filename="G:\LGV_G3\Icons\sportanlagen\symbole_sportstaetten\bewegungskita.png"
   inkscape:export-xdpi="90"
   inkscape:export-ydpi="90"
   inkscape:version="0.92.2 (5c3e80d, 2017-08-06)"><metadata
     id="metadata42"><rdf:RDF><cc:Work
         rdf:about=""><dc:format>image/svg+xml</dc:format><dc:type
           rdf:resource="http://purl.org/dc/dcmitype/StillImage" /><dc:title></dc:title></cc:Work></rdf:RDF></metadata><defs
     id="defs40" /><sodipodi:namedview
     pagecolor="#ffffff"
     bordercolor="#666666"
     borderopacity="1"
     objecttolerance="10"
     gridtolerance="10"
     guidetolerance="10"
     inkscape:pageopacity="0"
     inkscape:pageshadow="2"
     inkscape:window-width="1625"
     inkscape:window-height="991"
     id="namedview38"
     showgrid="false"
     inkscape:zoom="20.975"
     inkscape:cx="11.895113"
     inkscape:cy="20"
     inkscape:window-x="-2"
     inkscape:window-y="7"
     inkscape:window-maximized="0"
     inkscape:current-layer="Ebene_9"
     inkscape:snap-others="false"
     inkscape:object-nodes="false"
     inkscape:snap-nodes="false"
     inkscape:snap-global="false" /><g
     id="Ebene_7"><path
       fill-rule="evenodd"
       clip-rule="evenodd"
       fill="#85A044"
       stroke="#4D6523"
       stroke-width="2"
       stroke-miterlimit="10"
       d="   M37.162,38.234c0,0.38-0.392,0.703-0.782,0.703H5.313c-0.387,0-1.111-0.607-1.111-0.987L3.938,20C3.938,19.34,2,19.125,2,19.125   S19.195,1.666,19.449,1.416c0.335-0.32,0.79-0.218,1.006-0.009C20.621,1.567,38.36,18.958,38.36,18.958s-1.296,0.499-1.254,1.117   L37.162,38.234z"
       id="path2"
       style="fill:#78a2bd;fill-opacity:1" /></g><g
     id="Ebene_9"><polygon
       fill-rule="evenodd"
       clip-rule="evenodd"
       fill="#F2F9D7"
       points="20,2.369 3.958,18.583 5.486,20 21.575,3.933  "
       id="polygon5"
       style="fill:#dcf9fc;fill-opacity:1" /></g><g
     id="Ebene_8"><path
       fill-rule="evenodd"
       clip-rule="evenodd"
       fill="#6E8630"
       d="M36.103,37.915c-0.774,0.007-1.194,0.035-1.566,0.035H5.625   c-0.605,0.08-0.542-0.294-0.542-0.408l0.042-6.25c0-0.202,1.482-0.821,1.482-0.821s12.561-3.924,12.872-4.022   c0.318-0.098,0.75-0.065,0.955-0.004c0.205,0.064,14.516,4.568,14.516,4.568s1.114,0.233,1.152,0.425V37.915z"
       id="path8" /></g><ellipse
     style="fill:#ffffff;fill-opacity:1"
     cx="20.437571"
     cy="18.377918"
     rx="4.3470001"
     ry="4.224"
     id="ellipse74" /><path
     inkscape:connector-curvature="0"
     style="fill:#ffffff;fill-opacity:1"
     d="m 15.174571,32.702919 c 0,1.505 -0.891,2.726 -1.991,2.726 -1.1,0 -2.151,-0.967 -3.024,-2.219 -0.9610003,-1.378 0.775,-3.542 1.875,-3.542 1.1,0 3.14,1.528 3.14,3.035 z"
     id="path76" /><path
     inkscape:connector-curvature="0"
     style="fill:#ffffff;fill-opacity:1"
     d="m 30.117571,33.292919 c -0.579,1.367 -1.686,1.962 -2.732,1.962 -1.046,0 -1.895,-1.183 -1.895,-2.64 0,-1.457 1.898,-2.719 2.941,-2.64 2.543,0.193 2.254,1.976 1.686,3.318 z"
     id="path78" /><path
     inkscape:connector-curvature="0"
     style="fill:#ffffff;fill-opacity:1"
     d="m 25.325571,28.752919 c 0,4.11 -2.105,4.271 -4.881,4.271 -2.774,0 -5.169,-0.16 -5.169,-4.271 0,-4.111 2.25,-5.989 5.024,-5.989 2.776,0 5.026,1.878 5.026,5.989 z"
     id="path80" /><path
     inkscape:connector-curvature="0"
     style="fill:#ffffff;fill-opacity:1"
     d="m 9.3975707,21.684919 c -0.506,0.621 0.462,2.07 2.1630003,3.239 1.701,1.168 2.453,3.226 3.995,0.992 0.603,-0.873 -0.462,-2.07 -2.163,-3.238 -1.701,-1.168 -3.4880003,-1.614 -3.9950003,-0.993 z"
     id="path82" /><path
     inkscape:connector-curvature="0"
     style="fill:#ffffff;fill-opacity:1"
     d="m 30.806571,21.604919 c 0.555,0.586 -0.306,2.116 -1.919,3.419 -1.614,1.304 -2.584,3.357 -3.928,1.298 -0.718,-1.101 0.305,-2.116 1.92,-3.42 1.615,-1.302 3.373,-1.882 3.927,-1.297 z"
     id="path84" /></svg>