<?xml version="1.0" encoding="UTF-8" standalone="no"?>
<!-- Generator: Adobe Illustrator 15.0.0, SVG Export Plug-In . SVG Version: 6.00 Build 0)  -->

<svg
   xmlns:dc="http://purl.org/dc/elements/1.1/"
   xmlns:cc="http://creativecommons.org/ns#"
   xmlns:rdf="http://www.w3.org/1999/02/22-rdf-syntax-ns#"
   xmlns:svg="http://www.w3.org/2000/svg"
   xmlns="http://www.w3.org/2000/svg"
   xmlns:sodipodi="http://sodipodi.sourceforge.net/DTD/sodipodi-0.dtd"
   xmlns:inkscape="http://www.inkscape.org/namespaces/inkscape"
   version="1.1"
   x="0px"
   y="0px"
   width="40px"
   height="40px"
   viewBox="0 0 40 40"
   enable-background="new 0 0 40 40"
   xml:space="preserve"
   id="svg36"
   sodipodi:docname="dreifeldhalle.svg"
   inkscape:export-filename="G:\LGV_G3\Icons\sportanlagen\symbole_sportanlagen\brauchen\dreifeldhalle.png"
   inkscape:export-xdpi="90"
   inkscape:export-ydpi="90"
   inkscape:version="0.92.2 (5c3e80d, 2017-08-06)"><metadata
     id="metadata42"><rdf:RDF><cc:Work
         rdf:about=""><dc:format>image/svg+xml</dc:format><dc:type
           rdf:resource="http://purl.org/dc/dcmitype/StillImage" /><dc:title></dc:title></cc:Work></rdf:RDF></metadata><defs
     id="defs40" /><sodipodi:namedview
     pagecolor="#ffffff"
     bordercolor="#666666"
     borderopacity="1"
     objecttolerance="10"
     gridtolerance="10"
     guidetolerance="10"
     inkscape:pageopacity="0"
     inkscape:pageshadow="2"
     inkscape:window-width="1796"
     inkscape:window-height="991"
     id="namedview38"
     showgrid="false"
     inkscape:zoom="20.975"
     inkscape:cx="20"
     inkscape:cy="20"
     inkscape:window-x="1937"
     inkscape:window-y="16"
     inkscape:window-maximized="0"
     inkscape:current-layer="text4563" /><g
     id="Ebene_7"><path
       fill-rule="evenodd"
       clip-rule="evenodd"
       fill="#85A044"
       stroke="#4D6523"
       stroke-width="2"
       stroke-miterlimit="10"
       d="   M37.162,38.234c0,0.38-0.392,0.703-0.782,0.703H5.313c-0.387,0-1.111-0.607-1.111-0.987L3.938,20C3.938,19.34,2,19.125,2,19.125   S19.195,1.666,19.449,1.416c0.335-0.32,0.79-0.218,1.006-0.009C20.621,1.567,38.36,18.958,38.36,18.958s-1.296,0.499-1.254,1.117   L37.162,38.234z"
       id="path2" /></g><g
     id="Ebene_9"><polygon
       fill-rule="evenodd"
       clip-rule="evenodd"
       fill="#F2F9D7"
       points="20,2.369 3.958,18.583 5.486,20 21.575,3.933  "
       id="polygon5" /></g><g
     id="Ebene_8"><path
       fill-rule="evenodd"
       clip-rule="evenodd"
       fill="#6E8630"
       d="M36.103,37.915c-0.774,0.007-1.194,0.035-1.566,0.035H5.625   c-0.605,0.08-0.542-0.294-0.542-0.408l0.042-6.25c0-0.202,1.482-0.821,1.482-0.821s12.561-3.924,12.872-4.022   c0.318-0.098,0.75-0.065,0.955-0.004c0.205,0.064,14.516,4.568,14.516,4.568s1.114,0.233,1.152,0.425V37.915z"
       id="path8" /></g><path
     style="fill:none;fill-rule:evenodd;stroke:#b0d1b1;stroke-width:1.49565852;stroke-linecap:butt;stroke-linejoin:miter;stroke-miterlimit:4;stroke-dasharray:none;stroke-opacity:1"
     d="m 8.7308373,34.209442 10.3333697,-7.062981 13.257907,0.168167 -7.798769,6.894813 z"
     id="path4538"
     inkscape:connector-curvature="0"
     sodipodi:nodetypes="ccccc" /><g
     aria-label="3"
     style="font-style:normal;font-weight:bold;font-size:24px;line-height:125%;font-family:Sans;-inkscape-font-specification:'Sans Bold';letter-spacing:0px;word-spacing:0px;fill:#000000;fill-opacity:1;stroke:none;stroke-width:1px;stroke-linecap:butt;stroke-linejoin:miter;stroke-opacity:1"
     id="text4563"><path
       d="m 14.631158,26.797338 3.1875,-0.386718 q 0.152344,1.21875 0.820312,1.863281 0.667969,0.644531 1.617188,0.644531 1.019531,0 1.710937,-0.773437 0.703125,-0.773438 0.703125,-2.085938 0,-1.242187 -0.667968,-1.96875 -0.667969,-0.726562 -1.628907,-0.726562 -0.632812,0 -1.511718,0.246093 l 0.363281,-2.683593 q 1.335937,0.03516 2.039062,-0.574219 0.703125,-0.621094 0.703125,-1.640625 0,-0.867188 -0.515625,-1.382813 -0.515625,-0.515625 -1.371093,-0.515625 -0.84375,0 -1.441407,0.585938 -0.597656,0.585937 -0.726562,1.710937 l -3.035156,-0.515625 q 0.316406,-1.558593 0.949218,-2.484375 0.644532,-0.9375 1.78125,-1.464843 1.148438,-0.539063 2.566407,-0.539063 2.425781,0 3.890625,1.546875 1.207031,1.265625 1.207031,2.859375 0,2.261719 -2.472656,3.609375 1.476562,0.316406 2.355468,1.417969 0.890625,1.101562 0.890625,2.660156 0,2.261719 -1.652343,3.855469 -1.652344,1.59375 -4.113282,1.59375 -2.332031,0 -3.867187,-1.335938 -1.535156,-1.347656 -1.78125,-3.515625 z"
       style="font-style:normal;font-variant:normal;font-weight:bold;font-stretch:normal;font-family:Arial;-inkscape-font-specification:'Arial Bold';fill:#ffffff;fill-opacity:1"
       id="path820" /></g></svg>