<?xml version="1.0" encoding="UTF-8" standalone="no"?>
<!-- Generator: Adobe Illustrator 15.0.0, SVG Export Plug-In . SVG Version: 6.00 Build 0)  -->

<svg
   xmlns:dc="http://purl.org/dc/elements/1.1/"
   xmlns:cc="http://creativecommons.org/ns#"
   xmlns:rdf="http://www.w3.org/1999/02/22-rdf-syntax-ns#"
   xmlns:svg="http://www.w3.org/2000/svg"
   xmlns="http://www.w3.org/2000/svg"
   xmlns:sodipodi="http://sodipodi.sourceforge.net/DTD/sodipodi-0.dtd"
   xmlns:inkscape="http://www.inkscape.org/namespaces/inkscape"
   version="1.1"
   x="0px"
   y="0px"
   width="40px"
   height="40px"
   viewBox="0 0 40 40"
   enable-background="new 0 0 40 40"
   xml:space="preserve"
   id="svg2"
   inkscape:version="0.91 r13725"
   sodipodi:docname="eisbahn.svg"
   inkscape:export-filename="G:\AG_GDI-HH\Icons\sportanlagen\eisbahn.png"
   inkscape:export-xdpi="90"
   inkscape:export-ydpi="90"><metadata
     id="metadata29"><rdf:RDF><cc:Work
         rdf:about=""><dc:format>image/svg+xml</dc:format><dc:type
           rdf:resource="http://purl.org/dc/dcmitype/StillImage" /><dc:title></dc:title></cc:Work></rdf:RDF></metadata><defs
     id="defs27" /><sodipodi:namedview
     pagecolor="#ffffff"
     bordercolor="#666666"
     borderopacity="1"
     objecttolerance="10"
     gridtolerance="10"
     guidetolerance="10"
     inkscape:pageopacity="0"
     inkscape:pageshadow="2"
     inkscape:window-width="1817"
     inkscape:window-height="1005"
     id="namedview25"
     showgrid="false"
     inkscape:zoom="20.9"
     inkscape:cx="12.200957"
     inkscape:cy="20"
     inkscape:window-x="1975"
     inkscape:window-y="20"
     inkscape:window-maximized="0"
     inkscape:current-layer="svg2" /><g
     id="Ebene_1"><g
       id="XMLID_1_"><g
         id="g6"><path
           fill="#F2F9D7"
           d="M20,1c10.49,0,19,8.51,19,19s-8.51,19-19,19S1,30.49,1,20S9.51,1,20,1z"
           id="path8" /></g><g
         id="g10"><path
           fill="none"
           stroke="#4D6523"
           stroke-width="2"
           stroke-miterlimit="10"
           d="M39,20c0,10.49-8.51,19-19,19S1,30.49,1,20     S9.51,1,20,1S39,9.51,39,20z"
           id="path12" /></g></g><g
       id="Ebene_6"><path
         fill="#85A044"
         d="M37.721,20.469c-0.677,9.741-8.056,17.549-17.618,17.549S1.955,29.47,1.955,20.475    c0-3.246,0.479-3.972,0.479-3.972s1.667,0.296,1.878-0.727c0.95-4.581,7.997-15.503,21.62-11.005    c0.588,0.194,1.285-1.281,1.285-1.281s1.988,0.919,3.033,1.673C30.622,5.432,38.484,9.485,37.721,20.469z"
         id="path15" /></g><g
       id="Ebene_2"><path
         fill="#6E8630"
         d="M36.823,13.553c0,0,1.671,3.403,1.307,7.235c-1.228,12.915-11.927,17.413-17.364,17.365    C5.31,38.019,2.435,24.181,2.435,24.181c0-0.886,3.266-2.364,7.903-2.812c4.645-0.448,7.399,1.898,9.888,0.279    c0.438-0.285,3.713-4.138,5.81-5.419C28.916,14.47,33.307,13.553,36.823,13.553z"
         id="path18" /></g></g><path
     style="display:inline;fill:#ffffff;fill-opacity:1;fill-rule:evenodd"
     d="m 22.724054,10.073571 c 0.813864,-0.078683 7.321309,0.8084 7.424636,1.393795 0.110214,0.623991 -0.216145,3.627402 -0.160822,4.194786 0.05533,0.567383 0.05244,1.993338 0.549476,2.78759 0.49705,0.794245 0.723701,1.874439 0.723701,2.613365 4.3e-4,0.735494 -1.273177,2.653569 -1.273177,2.653569 0,0 -0.337297,0.37075 -0.830914,0.45566 -6.987842,1.199092 -17.892891,0.226869 -18.280149,0 -0.386404,-0.22815 -1.4455824,-1.131114 -1.0587473,-2.492744 0.3863993,-1.361204 1.5501143,-2.660538 2.5999643,-2.774186 1.049414,-0.113224 4.312502,-0.40002 4.864877,-0.683498 0.55237,-0.283904 2.316913,-1.305876 2.814393,-1.929868 0.497044,-0.623992 1.938551,-2.44504 2.10409,-3.069031 0.16597,-0.623989 0.442263,-2.882365 0.442263,-3.109229 0,-0.01426 0.02616,-0.03496 0.08041,-0.04019 z M 10.287123,26.41045 c 1.197084,-0.03334 1.919952,0.234051 2.93501,0.482468 1.160064,0.283474 4.360966,1.20617 6.901961,1.20617 2.874218,0 6.745212,-0.712341 7.518448,-0.857721 0.515061,-0.09778 2.845484,-0.642218 3.5917,-0.509271 1.121896,0.200278 1.105174,1.343833 0.911327,1.903064 -0.461454,1.333753 -1.272426,1.531241 -2.626766,2.01028 -2.002775,0.705904 -5.884491,1.022403 -9.448319,1.01854 -3.922349,-0.0056 -7.235826,-0.784706 -7.732877,-0.897921 -0.497478,-0.113657 -3.2371403,-1.083518 -3.9267452,-2.331925 -0.3199319,-0.577676 0.1113948,-1.870686 1.3267822,-1.983479 0.1925605,-0.01799 0.378468,-0.03547 0.549479,-0.0402 z"
     id="polygon4847"
     inkscape:connector-curvature="0"
     sodipodi:nodetypes="cccccccccccccsccccsccccccccc" /><path
     style="fill:none;fill-rule:evenodd;stroke:none;stroke-width:1px;stroke-linecap:butt;stroke-linejoin:miter;stroke-opacity:1"
     d="m 21.578947,14.066986 5.119618,0.861244 c 0,0 0.09569,1.291866 -0.04785,2.105263 -0.143541,0.813397 -0.04785,1.435407 0.04785,1.961722 0.09569,0.526316 1.244019,2.248804 1.004784,2.870814 -0.239234,0.622009 -1.004784,1.866028 -1.196172,1.961722 -0.191388,0.09569 -4.258373,0.62201 -6.602871,0.574163 -2.344497,-0.04785 -6.698564,-0.430622 -6.698564,-0.430622 0,0 -0.62201,-0.478469 -0.669857,-1.339713 -0.04785,-0.861244 0.909091,-2.105263 1.38756,-2.248804 0.478469,-0.143541 3.492823,-0.430622 3.779904,-0.526316 0.287082,-0.09569 1.818182,-1.004784 2.105263,-1.339713 0.287082,-0.334928 1.339713,-1.770335 1.435407,-2.105263 0.09569,-0.334928 0.334928,-2.344497 0.334928,-2.344497 z"
     id="path4146"
     inkscape:connector-curvature="0" /><path
     style="fill:none;fill-rule:evenodd;stroke:none;stroke-width:1px;stroke-linecap:butt;stroke-linejoin:miter;stroke-opacity:1"
     d="m 19.904306,26.602871 c 1.38756,0.04785 3.923445,-0.239235 4.641149,-0.430622 0.717703,-0.191388 2.535885,-0.717704 2.91866,-0.574163 0.382775,0.143541 0.76555,0.382775 0.717703,0.861244 -0.04785,0.478469 -0.04785,1.339713 -0.813397,1.578948 -0.76555,0.239234 -3.397129,1.339712 -7.177033,1.148325 -3.779905,-0.191388 -5.789474,-0.574163 -6.31579,-0.76555 -0.526316,-0.191388 -2.15311,-1.004785 -2.200957,-1.578948 -0.04785,-0.574162 0.143541,-1.052631 0.62201,-1.244019 0.478469,-0.191387 1.244019,-0.334928 1.913875,-0.09569 0.669857,0.239235 3.014354,0.956938 3.971292,1.052632 0.956938,0.09569 1.722488,0.04785 1.722488,0.04785 z"
     id="path4148"
     inkscape:connector-curvature="0" /></svg>