<?xml version="1.0" encoding="UTF-8" standalone="no"?>
<!-- Generator: Adobe Illustrator 15.0.0, SVG Export Plug-In . SVG Version: 6.00 Build 0)  -->

<svg
   xmlns:dc="http://purl.org/dc/elements/1.1/"
   xmlns:cc="http://creativecommons.org/ns#"
   xmlns:rdf="http://www.w3.org/1999/02/22-rdf-syntax-ns#"
   xmlns:svg="http://www.w3.org/2000/svg"
   xmlns="http://www.w3.org/2000/svg"
   xmlns:sodipodi="http://sodipodi.sourceforge.net/DTD/sodipodi-0.dtd"
   xmlns:inkscape="http://www.inkscape.org/namespaces/inkscape"
   version="1.1"
   x="0px"
   y="0px"
   width="40px"
   height="40px"
   viewBox="0 0 40 40"
   enable-background="new 0 0 40 40"
   xml:space="preserve"
   id="svg2"
   inkscape:version="0.92.2 (5c3e80d, 2017-08-06)"
   sodipodi:docname="football.svg"
   inkscape:export-filename="G:\LGV_G3\Icons\sportanlagen\symbole_sportstaetten\football.png"
   inkscape:export-xdpi="90"
   inkscape:export-ydpi="90"><metadata
     id="metadata29"><rdf:RDF><cc:Work
         rdf:about=""><dc:format>image/svg+xml</dc:format><dc:type
           rdf:resource="http://purl.org/dc/dcmitype/StillImage" /><dc:title></dc:title></cc:Work></rdf:RDF></metadata><defs
     id="defs27" /><sodipodi:namedview
     pagecolor="#ffffff"
     bordercolor="#666666"
     borderopacity="1"
     objecttolerance="10"
     gridtolerance="10"
     guidetolerance="10"
     inkscape:pageopacity="0"
     inkscape:pageshadow="2"
     inkscape:window-width="1623"
     inkscape:window-height="868"
     id="namedview25"
     showgrid="false"
     inkscape:zoom="10.857097"
     inkscape:cx="23.463687"
     inkscape:cy="15.810056"
     inkscape:window-x="15"
     inkscape:window-y="17"
     inkscape:window-maximized="0"
     inkscape:current-layer="layer1" /><g
     id="Ebene_1"><g
       id="XMLID_1_"><g
         id="g6"><path
           fill="#F2F9D7"
           d="M20,1c10.49,0,19,8.51,19,19s-8.51,19-19,19S1,30.49,1,20S9.51,1,20,1z"
           id="path8" /></g><g
         id="g10"><path
           fill="none"
           stroke="#4D6523"
           stroke-width="2"
           stroke-miterlimit="10"
           d="M39,20c0,10.49-8.51,19-19,19S1,30.49,1,20     S9.51,1,20,1S39,9.51,39,20z"
           id="path12" /></g></g><g
       id="Ebene_6"><path
         fill="#85A044"
         d="M37.721,20.469c-0.677,9.741-8.056,17.549-17.618,17.549S1.955,29.47,1.955,20.475    c0-3.246,0.479-3.972,0.479-3.972s1.667,0.296,1.878-0.727c0.95-4.581,7.997-15.503,21.62-11.005    c0.588,0.194,1.285-1.281,1.285-1.281s1.988,0.919,3.033,1.673C30.622,5.432,38.484,9.485,37.721,20.469z"
         id="path15" /></g><g
       id="Ebene_2"><path
         fill="#6E8630"
         d="M36.823,13.553c0,0,1.671,3.403,1.307,7.235c-1.228,12.915-11.927,17.413-17.364,17.365    C5.31,38.019,2.435,24.181,2.435,24.181c0-0.886,3.266-2.364,7.903-2.812c4.645-0.448,7.399,1.898,9.888,0.279    c0.438-0.285,3.713-4.138,5.81-5.419C28.916,14.47,33.307,13.553,36.823,13.553z"
         id="path18" /></g></g><g
     transform="translate(0.23923448,-0.73291913)"
     id="Ebene_6-4" /><g
     inkscape:groupmode="layer"
     id="layer1"
     inkscape:label="Layer 1"><path
       d="m 21.622604,9.5202221 c -1.709961,0.05487 -4.367153,0.6963059 -6.000465,1.7461659 -1.866981,1.200179 -4.702503,5.538038 -4.402458,5.471325 0.300044,-0.06672 4.531146,-0.57469 5.164422,-0.507976 0.633277,0.06705 1.872145,0.274645 2.338806,0.507976 0.46666,0.23333 1.026534,1.795356 1.026534,2.0954 0,0.300045 0.134868,1.738717 -0.03175,2.338806 -0.166617,0.600088 -0.528635,1.36002 -0.761965,1.693253 -0.23333,0.333232 -0.12844,2.703702 -0.09525,3.037272 0.03319,0.333571 0.659269,1.501746 1.259356,1.968407 0.60009,0.466661 1.799843,0.730215 2.232978,0.730215 0.433134,0 3.199656,-0.466576 3.566414,-0.666718 0.366759,-0.199804 2.232977,-0.899541 2.232977,-0.899541 0,0 1.166483,0.634039 1.333438,0.433896 0.166954,-0.200142 2.233908,-3.8723 2.434051,-4.33896 0.199803,-0.466661 0.801417,-2.829256 0.867792,-3.196016 0.06672,-0.366758 -0.07086,-2.732232 -0.137577,-3.132517 -0.06706,-0.399947 -0.561821,-1.367387 -0.761964,-1.767333 -0.200142,-0.399946 -1.145485,-1.809156 -1.968406,-2.635125 -0.266518,-0.267195 -2.502798,-1.5975 -3.069022,-1.83083 -0.566224,-0.233331 -2.961076,-0.9036889 -4.561199,-1.0371179 -0.200016,-0.01663 -0.422439,-0.01842 -0.66672,-0.01055 z m 1.534511,1.7038349 0.423312,0.317485 0.529143,0.402148 0.539723,-0.253988 0.455062,-0.211656 -0.148159,0.476226 -0.169326,0.507977 0.455062,0.296319 0.476227,0.328067 -0.571472,0.07408 -0.592639,0.08466 -0.349233,0.613804 -0.264571,0.476228 -0.137577,-0.539725 -0.137577,-0.582055 -0.582055,0.116409 -0.645553,0.126994 0.444479,-0.486811 0.455062,-0.518559 -0.105822,-0.698466 z m 3.460586,1.301689 0.423312,0.317485 0.529143,0.391565 0.539723,-0.243406 0.455062,-0.211656 -0.158743,0.476227 -0.158742,0.497392 0.455063,0.306903 0.465644,0.317485 -0.560891,0.08466 -0.592638,0.07408 -0.349233,0.613804 -0.275154,0.48681 -0.126994,-0.539724 -0.137577,-0.582056 -0.582055,0.116409 -0.645553,0.116408 0.444479,-0.48681 0.455062,-0.507976 -0.105835,-0.70905 z m 1.90491,3.047856 0.423312,0.317485 0.539725,0.391564 0.539725,-0.243405 0.455061,-0.211657 -0.158742,0.476228 -0.158743,0.507975 0.444479,0.29632 0.476227,0.328068 -0.571473,0.07408 -0.582056,0.07408 -0.349233,0.613804 -0.275153,0.48681 -0.126995,-0.539724 -0.137577,-0.582056 -0.582055,0.116408 -0.645553,0.126995 0.433896,-0.486811 0.465645,-0.518558 -0.105822,-0.698467 z m -5.926387,4.67761 c 0.487177,0 0.926077,0.102333 1.259357,0.275154 0.333281,0.172827 0.571473,0.430943 0.571473,0.751381 0,0.320438 -0.238192,0.589137 -0.571473,0.761964 -0.33328,0.172826 -0.77218,0.26457 -1.259357,0.26457 -0.487176,0 -0.93666,-0.09175 -1.26994,-0.26457 -0.333279,-0.172827 -0.571472,-0.441526 -0.571472,-0.761964 0,-0.320438 0.238193,-0.578554 0.571472,-0.751381 0.33328,-0.172826 0.782764,-0.275154 1.26994,-0.275154 z"
       id="path7"
       style="display:inline;fill:#fcfdfc;fill-opacity:1;stroke-width:0.33865058"
       sodipodi:nodetypes="scscsssssssccscccscscscccccccccccccccccccccccccccccccccccccccccccccccccccccccccccccccsssssssss"
       inkscape:connector-curvature="0" /><path
       d="m 20.618758,21.075572 c 0,0 -2.852114,1.568969 -4.069901,3.16977 -1.108066,1.458568 -1.0593,3.931056 -1.892719,4.297814 -0.833418,0.36676 -1.869013,0.869656 -2.468762,0.968542 -0.599751,0.101251 -3.9053191,0.167631 -3.9053191,0.167631 l 1.200178,-7.810298 9.8926611,-0.284466"
       id="path9"
       stroke-miterlimit="3.8637"
       style="clip-rule:evenodd;display:inline;fill:none;stroke:#ffffff;stroke-width:1.5118041;stroke-miterlimit:3.86369991;stroke-opacity:1;fill-opacity:1"
       inkscape:connector-curvature="0" /><line
       id="line11"
       stroke-miterlimit="3.8637"
       style="clip-rule:evenodd;display:inline;fill:#fcfdfc;stroke:#ffffff;stroke-width:1.5118041;stroke-miterlimit:3.86369991;stroke-opacity:1;fill-opacity:1"
       x1="12.34891"
       x2="11.015644"
       y1="22.138258"
       y2="29.41044" /></g></svg>