<?xml version="1.0" encoding="utf-8"?>
<!-- Generator: Adobe Illustrator 15.0.0, SVG Export Plug-In . SVG Version: 6.00 Build 0)  -->
<!DOCTYPE svg PUBLIC "-//W3C//DTD SVG 1.1//EN" "http://www.w3.org/Graphics/SVG/1.1/DTD/svg11.dtd">
<svg version="1.1" xmlns="http://www.w3.org/2000/svg" xmlns:xlink="http://www.w3.org/1999/xlink" x="0px" y="0px" width="40px"
	 height="40px" viewBox="0 0 40 40" enable-background="new 0 0 40 40" xml:space="preserve">
<g id="Ebene_7">
	<path fill-rule="evenodd" clip-rule="evenodd" fill="#4389C8" stroke="#106FB7" stroke-width="2" stroke-miterlimit="10" d="
		M37.162,38.234c0,0.38-0.392,0.703-0.782,0.703H5.313c-0.387,0-1.111-0.607-1.111-0.987L3.938,20C3.938,19.34,2,19.125,2,19.125
		S19.195,1.666,19.449,1.416c0.335-0.32,0.79-0.218,1.006-0.009C20.621,1.567,38.36,18.958,38.36,18.958s-1.296,0.499-1.254,1.117
		L37.162,38.234z"/>
</g>
<g id="Ebene_9">
	<polygon fill-rule="evenodd" clip-rule="evenodd" fill="#D0F1F7" points="20,2.369 3.958,18.583 5.486,20 21.575,3.933 	"/>
</g>
<g id="Ebene_8">
	<path fill-rule="evenodd" clip-rule="evenodd" fill="#0B619E" d="M36.103,37.915c-0.774,0.007-1.194,0.035-1.566,0.035H5.625
		c-0.605,0.08-0.542-0.294-0.542-0.408l0.042-6.25c0-0.202,1.482-0.821,1.482-0.821s12.561-3.924,12.872-4.022
		c0.318-0.098,0.75-0.065,0.955-0.004c0.205,0.064,14.516,4.568,14.516,4.568s1.114,0.233,1.152,0.425V37.915z"/>
</g>
<g id="Ebene_4">
	<ellipse fill="#FFFFFF" cx="27.792" cy="23.251" rx="3.02" ry="2.93"/>
	<path fill="#FFFFFF" d="M10.159,34.035l0.015-3.806c0,0,1.29-1.19,3.605-1.19c2.316,0,4.546,1.709,7.135,1.663
		c2.587-0.047,3.491-1.663,6.714-1.663c3.224,0,4.736,0.968,4.736,0.968l-0.065,3.701c0,0-2.583-1.305-4.854-1.26
		c-2.27,0.045-3.448,1.723-6.491,1.769c-3.042,0.045-4.45-1.638-6.63-1.593C12.145,32.67,10.159,34.035,10.159,34.035z"/>
	<path fill="#FFFFFF" d="M18.094,22.498l-1.231-1.734c0,0-0.608-0.71-0.494-1.53c0.107-0.774,0.873-1.101,0.873-1.101l5.764-3.843
		c0,0,1.512-0.523,2.263,0.581c0.861,1.271-0.495,2.165-0.495,2.165l-4.138,2.92c0,0,1.408,1.87,2.181,3.296
		c0.771,1.427,1.134,3.969,1.134,3.969s-0.59,0.771-3.041,0.817c-2.45,0.045-2.992-0.514-4.132-1.043
		c-1.987-0.927-4.313-0.592-4.313-0.592L18.094,22.498z"/>
</g>
</svg>
