<?xml version="1.0" encoding="UTF-8" standalone="no"?>
<!-- Generator: Adobe Illustrator 15.0.0, SVG Export Plug-In . SVG Version: 6.00 Build 0)  -->

<svg
   xmlns:dc="http://purl.org/dc/elements/1.1/"
   xmlns:cc="http://creativecommons.org/ns#"
   xmlns:rdf="http://www.w3.org/1999/02/22-rdf-syntax-ns#"
   xmlns:svg="http://www.w3.org/2000/svg"
   xmlns="http://www.w3.org/2000/svg"
   xmlns:sodipodi="http://sodipodi.sourceforge.net/DTD/sodipodi-0.dtd"
   xmlns:inkscape="http://www.inkscape.org/namespaces/inkscape"
   version="1.1"
   x="0px"
   y="0px"
   width="40px"
   height="40px"
   viewBox="0 0 40 40"
   enable-background="new 0 0 40 40"
   xml:space="preserve"
   id="svg2"
   inkscape:version="0.92.2 (5c3e80d, 2017-08-06)"
   sodipodi:docname="hockeyfeld.svg"
   inkscape:export-filename="G:\LGV_G3\Icons\sportanlagen\symbole_sportstaetten\hockeyfeld.png"
   inkscape:export-xdpi="90"
   inkscape:export-ydpi="90"><metadata
     id="metadata29"><rdf:RDF><cc:Work
         rdf:about=""><dc:format>image/svg+xml</dc:format><dc:type
           rdf:resource="http://purl.org/dc/dcmitype/StillImage" /><dc:title></dc:title></cc:Work></rdf:RDF></metadata><defs
     id="defs27" /><sodipodi:namedview
     pagecolor="#ffffff"
     bordercolor="#666666"
     borderopacity="1"
     objecttolerance="10"
     gridtolerance="10"
     guidetolerance="10"
     inkscape:pageopacity="0"
     inkscape:pageshadow="2"
     inkscape:window-width="1817"
     inkscape:window-height="1005"
     id="namedview25"
     showgrid="false"
     inkscape:zoom="21.325"
     inkscape:cx="12.028136"
     inkscape:cy="20"
     inkscape:window-x="1975"
     inkscape:window-y="20"
     inkscape:window-maximized="0"
     inkscape:current-layer="layer1" /><g
     id="Ebene_1"><g
       id="XMLID_1_"><g
         id="g6"><path
           fill="#F2F9D7"
           d="M20,1c10.49,0,19,8.51,19,19s-8.51,19-19,19S1,30.49,1,20S9.51,1,20,1z"
           id="path8" /></g><g
         id="g10"><path
           fill="none"
           stroke="#4D6523"
           stroke-width="2"
           stroke-miterlimit="10"
           d="M39,20c0,10.49-8.51,19-19,19S1,30.49,1,20     S9.51,1,20,1S39,9.51,39,20z"
           id="path12" /></g></g><g
       id="Ebene_6"><path
         fill="#85A044"
         d="M37.721,20.469c-0.677,9.741-8.056,17.549-17.618,17.549S1.955,29.47,1.955,20.475    c0-3.246,0.479-3.972,0.479-3.972s1.667,0.296,1.878-0.727c0.95-4.581,7.997-15.503,21.62-11.005    c0.588,0.194,1.285-1.281,1.285-1.281s1.988,0.919,3.033,1.673C30.622,5.432,38.484,9.485,37.721,20.469z"
         id="path15" /></g><g
       id="Ebene_2"><path
         fill="#6E8630"
         d="M36.823,13.553c0,0,1.671,3.403,1.307,7.235c-1.228,12.915-11.927,17.413-17.364,17.365    C5.31,38.019,2.435,24.181,2.435,24.181c0-0.886,3.266-2.364,7.903-2.812c4.645-0.448,7.399,1.898,9.888,0.279    c0.438-0.285,3.713-4.138,5.81-5.419C28.916,14.47,33.307,13.553,36.823,13.553z"
         id="path18" /></g></g><g
     transform="translate(0.23923448,-0.73291913)"
     id="Ebene_6-4" /><g
     inkscape:groupmode="layer"
     id="layer1"
     inkscape:label="Layer 1"><circle
       cx="19.231213"
       cy="9.942132"
       id="circle4141"
       r="2.0168297"
       stroke-miterlimit="3.8637"
       style="display:inline;fill:#ffffff;fill-opacity:1;stroke:none;stroke-width:0.34510955;stroke-miterlimit:3.86369991;stroke-dasharray:none;stroke-opacity:1" /><path
       d="m 26.358362,21.391278 c 1.106203,0.570187 2.759852,5.95812 6.734411,6.534138"
       id="path4147"
       stroke-miterlimit="3.8637"
       style="clip-rule:evenodd;display:inline;fill:none;stroke:#ffffff;stroke-width:2.36452985;stroke-miterlimit:3.86369991;stroke-dasharray:none;stroke-opacity:1"
       inkscape:connector-curvature="0"
       sodipodi:nodetypes="cc" /><path
       d="m 20.646317,21.327826 c 3.1954,-6.563477 1.42504,-12.2583218 -2.652955,-2.710598"
       id="path4149"
       stroke-miterlimit="3.8637"
       style="clip-rule:evenodd;display:inline;fill:none;stroke:#ffffff;stroke-width:1.86272824;stroke-miterlimit:3.86369991;stroke-dasharray:none;stroke-opacity:1"
       inkscape:connector-curvature="0"
       sodipodi:nodetypes="cc" /><path
       d="m 25.430906,21.647363 c -2.129232,2.101451 -5.354846,4.254822 -2.589523,8.540568"
       id="path4155"
       stroke-miterlimit="3.8637"
       style="clip-rule:evenodd;display:inline;fill:none;stroke:#ffffff;stroke-width:2.39930463;stroke-miterlimit:3.86369991;stroke-dasharray:none;stroke-opacity:1"
       inkscape:connector-curvature="0"
       sodipodi:nodetypes="cc" /><path
       style="fill:none;fill-rule:evenodd;stroke:#ffffff;stroke-width:3.80688405;stroke-linecap:round;stroke-linejoin:miter;stroke-miterlimit:4;stroke-dasharray:none;stroke-opacity:1"
       d="m 22.519661,13.99565 2.55163,2.965225 0.633887,3.839255"
       id="path4569"
       inkscape:connector-curvature="0"
       sodipodi:nodetypes="ccc" /><path
       style="fill:none;fill-rule:evenodd;stroke:#ffffff;stroke-width:1.54165173;stroke-linecap:butt;stroke-linejoin:miter;stroke-miterlimit:4;stroke-dasharray:none;stroke-opacity:1"
       d="m 14.040313,27.707594 c 1.806081,-2.563994 2.937142,-4.311639 5.809479,-8.893401"
       id="path4571"
       inkscape:connector-curvature="0"
       sodipodi:nodetypes="cc" /><path
       style="fill:none;fill-rule:evenodd;stroke:#ffffff;stroke-width:1.45636427;stroke-linecap:butt;stroke-linejoin:miter;stroke-miterlimit:4;stroke-dasharray:none;stroke-opacity:1"
       d="m 11.58893,26.40952 c 0,0 0.237502,1.959509 1.36905,1.903957 0.946196,-0.04645 1.462836,-1.237894 1.462836,-1.237894"
       id="path4573"
       inkscape:connector-curvature="0"
       sodipodi:nodetypes="csc"
       inkscape:transform-center-x="-0.55688014"
       inkscape:transform-center-y="0.81000634" /><circle
       cx="8.653738"
       cy="29.981634"
       id="circle4141-2"
       r="1.3623302"
       stroke-miterlimit="3.8637"
       style="display:inline;fill:#ffffff;fill-opacity:1;stroke:none;stroke-width:0.23311494;stroke-miterlimit:3.86369991;stroke-dasharray:none;stroke-opacity:1" /></g></svg>