<?xml version="1.0" encoding="UTF-8" standalone="no"?>
<!-- Generator: Adobe Illustrator 15.0.0, SVG Export Plug-In . SVG Version: 6.00 Build 0)  -->

<svg
   xmlns:dc="http://purl.org/dc/elements/1.1/"
   xmlns:cc="http://creativecommons.org/ns#"
   xmlns:rdf="http://www.w3.org/1999/02/22-rdf-syntax-ns#"
   xmlns:svg="http://www.w3.org/2000/svg"
   xmlns="http://www.w3.org/2000/svg"
   xmlns:sodipodi="http://sodipodi.sourceforge.net/DTD/sodipodi-0.dtd"
   xmlns:inkscape="http://www.inkscape.org/namespaces/inkscape"
   version="1.1"
   x="0px"
   y="0px"
   width="40px"
   height="40px"
   viewBox="0 0 40 40"
   enable-background="new 0 0 40 40"
   xml:space="preserve"
   id="svg2"
   inkscape:version="0.92.2 (5c3e80d, 2017-08-06)"
   sodipodi:docname="kletteranlage.svg"
   inkscape:export-filename="G:\LGV_G3\Icons\sportanlagen\symbole_sportstaetten\kletteranlage.png"
   inkscape:export-xdpi="90"
   inkscape:export-ydpi="90"><metadata
     id="metadata29"><rdf:RDF><cc:Work
         rdf:about=""><dc:format>image/svg+xml</dc:format><dc:type
           rdf:resource="http://purl.org/dc/dcmitype/StillImage" /><dc:title></dc:title></cc:Work></rdf:RDF></metadata><defs
     id="defs27" /><sodipodi:namedview
     pagecolor="#ffffff"
     bordercolor="#666666"
     borderopacity="1"
     objecttolerance="10"
     gridtolerance="10"
     guidetolerance="10"
     inkscape:pageopacity="0"
     inkscape:pageshadow="2"
     inkscape:window-width="1622"
     inkscape:window-height="973"
     id="namedview25"
     showgrid="false"
     inkscape:zoom="21.325"
     inkscape:cx="12.028136"
     inkscape:cy="20"
     inkscape:window-x="12"
     inkscape:window-y="5"
     inkscape:window-maximized="0"
     inkscape:current-layer="svg2" /><g
     id="Ebene_1"><g
       id="XMLID_1_"><g
         id="g6"><path
           fill="#F2F9D7"
           d="M20,1c10.49,0,19,8.51,19,19s-8.51,19-19,19S1,30.49,1,20S9.51,1,20,1z"
           id="path8" /></g><g
         id="g10"><path
           fill="none"
           stroke="#4D6523"
           stroke-width="2"
           stroke-miterlimit="10"
           d="M39,20c0,10.49-8.51,19-19,19S1,30.49,1,20     S9.51,1,20,1S39,9.51,39,20z"
           id="path12" /></g></g><g
       id="Ebene_6"><path
         fill="#85A044"
         d="M37.721,20.469c-0.677,9.741-8.056,17.549-17.618,17.549S1.955,29.47,1.955,20.475    c0-3.246,0.479-3.972,0.479-3.972s1.667,0.296,1.878-0.727c0.95-4.581,7.997-15.503,21.62-11.005    c0.588,0.194,1.285-1.281,1.285-1.281s1.988,0.919,3.033,1.673C30.622,5.432,38.484,9.485,37.721,20.469z"
         id="path15" /></g><g
       id="Ebene_2"><path
         fill="#6E8630"
         d="M36.823,13.553c0,0,1.671,3.403,1.307,7.235c-1.228,12.915-11.927,17.413-17.364,17.365    C5.31,38.019,2.435,24.181,2.435,24.181c0-0.886,3.266-2.364,7.903-2.812c4.645-0.448,7.399,1.898,9.888,0.279    c0.438-0.285,3.713-4.138,5.81-5.419C28.916,14.47,33.307,13.553,36.823,13.553z"
         id="path18" /></g></g><polygon
     transform="matrix(0.7474385,0,0,1.6997661,6.5460357,-4.4044158)"
     style="fill:#ffffff"
     points="36.188,8.108 35.938,9.063 4.97,7.415 5.029,6.404 "
     id="polygon11" /><polygon
     transform="matrix(0.7474385,0,0,1.1735375,5.2330228,-10.01749)"
     style="fill:#ffffff"
     points="3.052,34.87 3.086,33.649 37.074,34.518 37.04,35.74 "
     id="polygon13" /><path
     inkscape:connector-curvature="0"
     style="fill:#ffffff;stroke-width:0.74743849"
     d="m 18.59154,10.873662 3.692797,3.96984 3.363474,1.472454 c 1.074816,0.49032 0.140518,1.427608 0.140518,1.427608 l -2.663124,4.28357 1.775167,7.005741 -1.681737,0.401375 -2.335745,-7.273325 -3.270044,2.275951 1.168247,4.194624 -1.775167,0.04484 -1.494876,-5.265703 4.158,-2.900062 1.541965,-4.28357 -5.050205,-5.817441 z"
     id="path15-0"
     sodipodi:nodetypes="cccccccccccccccc" /><ellipse
     style="fill:#ffffff;stroke-width:0.74743849"
     cx="26.163279"
     cy="13.869557"
     rx="1.6353954"
     ry="1.5621464"
     id="ellipse17" /><polygon
     transform="matrix(0.54837803,0,0,0.65162963,7.8843359,6.0707847)"
     style="fill:#ffffff;stroke:#fdfdfd;stroke-opacity:1"
     points="19.5,19.81 7.688,7.929 8.563,8.048 19.938,19.212 "
     id="polygon19" /><polygon
     transform="matrix(0.73005846,0.16024653,-0.16024653,0.73005846,7.4789654,0.59904164)"
     style="fill:#ffffff"
     points="23.188,12.943 20.813,9.003 23,9.182 24.5,11.809 "
     id="polygon21" /></svg>