<?xml version="1.0" encoding="UTF-8" standalone="no"?>
<!-- Generator: Adobe Illustrator 15.0.0, SVG Export Plug-In . SVG Version: 6.00 Build 0)  -->

<svg
   xmlns:dc="http://purl.org/dc/elements/1.1/"
   xmlns:cc="http://creativecommons.org/ns#"
   xmlns:rdf="http://www.w3.org/1999/02/22-rdf-syntax-ns#"
   xmlns:svg="http://www.w3.org/2000/svg"
   xmlns="http://www.w3.org/2000/svg"
   xmlns:sodipodi="http://sodipodi.sourceforge.net/DTD/sodipodi-0.dtd"
   xmlns:inkscape="http://www.inkscape.org/namespaces/inkscape"
   version="1.1"
   x="0px"
   y="0px"
   width="40px"
   height="40px"
   viewBox="0 0 40 40"
   enable-background="new 0 0 40 40"
   xml:space="preserve"
   id="svg2"
   inkscape:version="0.48.4 r9939"
   sodipodi:docname="button_gruen.svg"
   inkscape:export-filename="M:\Themen\Icons\Icons_MRH\Grundkonzept\Icons_MRH_neues_Konzept\neues_konzept_sport_natur\button_gruen.png"
   inkscape:export-xdpi="90"
   inkscape:export-ydpi="90"><metadata
   id="metadata29"><rdf:RDF><cc:Work
       rdf:about=""><dc:format>image/svg+xml</dc:format><dc:type
         rdf:resource="http://purl.org/dc/dcmitype/StillImage" /><dc:title></dc:title></cc:Work></rdf:RDF></metadata><defs
   id="defs27" /><sodipodi:namedview
   pagecolor="#ffffff"
   bordercolor="#666666"
   borderopacity="1"
   objecttolerance="10"
   gridtolerance="10"
   guidetolerance="10"
   inkscape:pageopacity="0"
   inkscape:pageshadow="2"
   inkscape:window-width="1920"
   inkscape:window-height="1018"
   id="namedview25"
   showgrid="false"
   inkscape:zoom="31.789578"
   inkscape:cx="20.508474"
   inkscape:cy="20"
   inkscape:window-x="-8"
   inkscape:window-y="-8"
   inkscape:window-maximized="1"
   inkscape:current-layer="Ebene_1" />
<g
   id="Ebene_1">
	<g
   id="XMLID_1_">
		<g
   id="g6">
			<path
   fill="#F2F9D7"
   d="M20,1c10.49,0,19,8.51,19,19s-8.51,19-19,19S1,30.49,1,20S9.51,1,20,1z"
   id="path8" />
		</g>
		<g
   id="g10">
			<path
   fill="none"
   stroke="#4D6523"
   stroke-width="2"
   stroke-miterlimit="10"
   d="M39,20c0,10.49-8.51,19-19,19S1,30.49,1,20     S9.51,1,20,1S39,9.51,39,20z"
   id="path12" />
		</g>
	</g>
	<g
   id="Ebene_6">
		<path
   fill="#85A044"
   d="M37.721,20.469c-0.677,9.741-8.056,17.549-17.618,17.549S1.955,29.47,1.955,20.475    c0-3.246,0.479-3.972,0.479-3.972s1.667,0.296,1.878-0.727c0.95-4.581,7.997-15.503,21.62-11.005    c0.588,0.194,1.285-1.281,1.285-1.281s1.988,0.919,3.033,1.673C30.622,5.432,38.484,9.485,37.721,20.469z"
   id="path15" />
	</g>
	<g
   id="Ebene_2">
		<path
   fill="#6E8630"
   d="M36.823,13.553c0,0,1.671,3.403,1.307,7.235c-1.228,12.915-11.927,17.413-17.364,17.365    C5.31,38.019,2.435,24.181,2.435,24.181c0-0.886,3.266-2.364,7.903-2.812c4.645-0.448,7.399,1.898,9.888,0.279    c0.438-0.285,3.713-4.138,5.81-5.419C28.916,14.47,33.307,13.553,36.823,13.553z"
   id="path18" />
	</g>
<path
   style="fill:#ffffff;stroke:#000000;stroke-width:1px;stroke-linecap:butt;stroke-linejoin:miter;stroke-opacity:1"
   d="m 25.335054,32.570321 -4.77354,-7.319428 0.848629,-2.864124 -0.954708,2.545888 -2.121573,0.954708 -3.18236,0.742551 -1.803338,1.166865 -0.636472,1.59118 -1.379022,1.59118 -1.4851021,0.424315 -0.74255,-0.530394 -1.803337,-1.909416 -0.424315,-2.227652 7.3194281,-14.108462 0.424314,-4.8796188 1.379023,2.4398098 0.636472,-2.7580448 0.954708,3.2884378 1.166865,-0.424315 1.909416,0.530394 3.18236,1.697258 3.606675,2.227652 1.909416,1.379023 1.909416,1.485101 1.59118,1.59118 1.272944,1.060787"
   id="path3049"
   inkscape:connector-curvature="0"
   sodipodi:nodetypes="cccccccccccccccccccccccccc"
   inkscape:transform-center-x="-3.0508475"
   inkscape:transform-center-y="13.070321" /><path
   sodipodi:type="arc"
   style="fill:#ff0000;fill-rule:evenodd;stroke:#000000;stroke-width:1px;stroke-linecap:butt;stroke-linejoin:miter;stroke-opacity:1"
   id="path2998"
   sodipodi:cx="16.231735"
   sodipodi:cy="16.737659"
   sodipodi:rx="0.1258274"
   sodipodi:ry="0.11009898"
   d="m 16.357563,16.737659 a 0.1258274,0.11009898 0 1 1 -0.251655,0 0.1258274,0.11009898 0 1 1 0.251655,0 z" /></g>

</svg>