<?xml version="1.0" encoding="UTF-8" standalone="no"?>
<!-- Generator: Adobe Illustrator 15.0.0, SVG Export Plug-In . SVG Version: 6.00 Build 0)  -->

<svg
   xmlns:dc="http://purl.org/dc/elements/1.1/"
   xmlns:cc="http://creativecommons.org/ns#"
   xmlns:rdf="http://www.w3.org/1999/02/22-rdf-syntax-ns#"
   xmlns:svg="http://www.w3.org/2000/svg"
   xmlns="http://www.w3.org/2000/svg"
   xmlns:sodipodi="http://sodipodi.sourceforge.net/DTD/sodipodi-0.dtd"
   xmlns:inkscape="http://www.inkscape.org/namespaces/inkscape"
   version="1.1"
   x="0px"
   y="0px"
   width="40px"
   height="40px"
   viewBox="0 0 40 40"
   enable-background="new 0 0 40 40"
   xml:space="preserve"
   id="svg2"
   inkscape:version="0.91 r13725"
   sodipodi:docname="schiesssport.svg"
   inkscape:export-filename="G:\AG_GDI-HH\Icons\sportanlagen\schiesssport.png"
   inkscape:export-xdpi="90"
   inkscape:export-ydpi="90"><metadata
     id="metadata29"><rdf:RDF><cc:Work
         rdf:about=""><dc:format>image/svg+xml</dc:format><dc:type
           rdf:resource="http://purl.org/dc/dcmitype/StillImage" /><dc:title></dc:title></cc:Work></rdf:RDF></metadata><defs
     id="defs27" /><sodipodi:namedview
     pagecolor="#ffffff"
     bordercolor="#666666"
     borderopacity="1"
     objecttolerance="10"
     gridtolerance="10"
     guidetolerance="10"
     inkscape:pageopacity="0"
     inkscape:pageshadow="2"
     inkscape:window-width="1817"
     inkscape:window-height="1005"
     id="namedview25"
     showgrid="false"
     inkscape:zoom="7.9419748"
     inkscape:cx="21.196172"
     inkscape:cy="22.440188"
     inkscape:window-x="1975"
     inkscape:window-y="20"
     inkscape:window-maximized="0"
     inkscape:current-layer="svg2" /><g
     id="Ebene_1"><g
       id="XMLID_1_"><g
         id="g6"><path
           fill="#F2F9D7"
           d="M20,1c10.49,0,19,8.51,19,19s-8.51,19-19,19S1,30.49,1,20S9.51,1,20,1z"
           id="path8" /></g><g
         id="g10"><path
           fill="none"
           stroke="#4D6523"
           stroke-width="2"
           stroke-miterlimit="10"
           d="M39,20c0,10.49-8.51,19-19,19S1,30.49,1,20     S9.51,1,20,1S39,9.51,39,20z"
           id="path12" /></g></g><g
       id="Ebene_6"><path
         fill="#85A044"
         d="M37.721,20.469c-0.677,9.741-8.056,17.549-17.618,17.549S1.955,29.47,1.955,20.475    c0-3.246,0.479-3.972,0.479-3.972s1.667,0.296,1.878-0.727c0.95-4.581,7.997-15.503,21.62-11.005    c0.588,0.194,1.285-1.281,1.285-1.281s1.988,0.919,3.033,1.673C30.622,5.432,38.484,9.485,37.721,20.469z"
         id="path15" /></g><g
       id="Ebene_2"><path
         fill="#6E8630"
         d="M36.823,13.553c0,0,1.671,3.403,1.307,7.235c-1.228,12.915-11.927,17.413-17.364,17.365    C5.31,38.019,2.435,24.181,2.435,24.181c0-0.886,3.266-2.364,7.903-2.812c4.645-0.448,7.399,1.898,9.888,0.279    c0.438-0.285,3.713-4.138,5.81-5.419C28.916,14.47,33.307,13.553,36.823,13.553z"
         id="path18" /></g></g><rect
     style="opacity:0.98999999;fill:none;fill-opacity:1;stroke:#ffffff;stroke-width:2.21549678;stroke-linecap:square;stroke-linejoin:miter;stroke-miterlimit:4;stroke-dasharray:none;stroke-opacity:1"
     id="rect4376-0"
     width="0.39624318"
     height="33.763264"
     x="20.285322"
     y="-36.775928"
     transform="matrix(0,1,-1,0,0,0)" /><circle
     style="opacity:0.98999999;fill:none;fill-opacity:1;stroke:#ffffff;stroke-width:2.23399997;stroke-linecap:square;stroke-linejoin:miter;stroke-miterlimit:4;stroke-dasharray:none;stroke-opacity:1"
     id="path4374"
     cx="19.957253"
     cy="20.5464"
     r="10.891498" /><rect
     style="opacity:0.98999999;fill:none;fill-opacity:1;stroke:#ffffff;stroke-width:2.21549678;stroke-linecap:square;stroke-linejoin:miter;stroke-miterlimit:4;stroke-dasharray:none;stroke-opacity:1"
     id="rect4376"
     width="0.39624318"
     height="33.763264"
     x="19.885044"
     y="3.098161" /><circle
     style="opacity:0.98999999;fill:#ffffff;fill-opacity:1;stroke:#ffffff;stroke-width:2.23399997;stroke-linecap:square;stroke-linejoin:miter;stroke-miterlimit:4;stroke-dasharray:none;stroke-opacity:1"
     id="path4372"
     cx="20.146124"
     cy="20.357529"
     r="2.8960052" /></svg>