<?xml version="1.0" encoding="UTF-8" standalone="no"?>
<!-- Generator: Adobe Illustrator 15.0.0, SVG Export Plug-In . SVG Version: 6.00 Build 0)  -->

<svg
   xmlns:dc="http://purl.org/dc/elements/1.1/"
   xmlns:cc="http://creativecommons.org/ns#"
   xmlns:rdf="http://www.w3.org/1999/02/22-rdf-syntax-ns#"
   xmlns:svg="http://www.w3.org/2000/svg"
   xmlns="http://www.w3.org/2000/svg"
   xmlns:sodipodi="http://sodipodi.sourceforge.net/DTD/sodipodi-0.dtd"
   xmlns:inkscape="http://www.inkscape.org/namespaces/inkscape"
   version="1.1"
   x="0px"
   y="0px"
   width="40px"
   height="40px"
   viewBox="0 0 40 40"
   enable-background="new 0 0 40 40"
   xml:space="preserve"
   id="svg2"
   inkscape:version="0.91 r13725"
   sodipodi:docname="skater.svg"
   inkscape:export-filename="G:\AG_GDI-HH\Icons\sportanlagen\skater.png"
   inkscape:export-xdpi="90"
   inkscape:export-ydpi="90"><metadata
     id="metadata29"><rdf:RDF><cc:Work
         rdf:about=""><dc:format>image/svg+xml</dc:format><dc:type
           rdf:resource="http://purl.org/dc/dcmitype/StillImage" /><dc:title></dc:title></cc:Work></rdf:RDF></metadata><defs
     id="defs27" /><sodipodi:namedview
     pagecolor="#ffffff"
     bordercolor="#666666"
     borderopacity="1"
     objecttolerance="10"
     gridtolerance="10"
     guidetolerance="10"
     inkscape:pageopacity="0"
     inkscape:pageshadow="2"
     inkscape:window-width="1817"
     inkscape:window-height="1005"
     id="namedview25"
     showgrid="false"
     inkscape:zoom="7.9419748"
     inkscape:cx="21.196172"
     inkscape:cy="22.440188"
     inkscape:window-x="1975"
     inkscape:window-y="20"
     inkscape:window-maximized="0"
     inkscape:current-layer="g3861" /><g
     id="Ebene_1"><g
       id="XMLID_1_"><g
         id="g6"><path
           fill="#F2F9D7"
           d="M20,1c10.49,0,19,8.51,19,19s-8.51,19-19,19S1,30.49,1,20S9.51,1,20,1z"
           id="path8" /></g><g
         id="g10"><path
           fill="none"
           stroke="#4D6523"
           stroke-width="2"
           stroke-miterlimit="10"
           d="M39,20c0,10.49-8.51,19-19,19S1,30.49,1,20     S9.51,1,20,1S39,9.51,39,20z"
           id="path12" /></g></g><g
       id="Ebene_6"><path
         fill="#85A044"
         d="M37.721,20.469c-0.677,9.741-8.056,17.549-17.618,17.549S1.955,29.47,1.955,20.475    c0-3.246,0.479-3.972,0.479-3.972s1.667,0.296,1.878-0.727c0.95-4.581,7.997-15.503,21.62-11.005    c0.588,0.194,1.285-1.281,1.285-1.281s1.988,0.919,3.033,1.673C30.622,5.432,38.484,9.485,37.721,20.469z"
         id="path15" /></g><g
       id="Ebene_2"><path
         fill="#6E8630"
         d="M36.823,13.553c0,0,1.671,3.403,1.307,7.235c-1.228,12.915-11.927,17.413-17.364,17.365    C5.31,38.019,2.435,24.181,2.435,24.181c0-0.886,3.266-2.364,7.903-2.812c4.645-0.448,7.399,1.898,9.888,0.279    c0.438-0.285,3.713-4.138,5.81-5.419C28.916,14.47,33.307,13.553,36.823,13.553z"
         id="path18" /></g></g><g
     style="display:inline"
     id="g3861"
     transform="matrix(0.86180351,0,0,0.86180351,45.372281,-188.83724)"><path
       id="path4242"
       d="m -26.936613,228.58119 c -0.394294,0.0164 -0.771475,0.0684 -1.001481,0.16692 -0.460013,0.19729 -0.264557,3.14849 -0.39642,4.06851 -0.09032,0.63177 -0.331035,1.47782 -0.730245,2.13858 0.825951,0.35101 1.646357,0.70254 2.472404,1.05364 0.503077,0.21365 0.614158,0.95174 0.365123,1.37703 -0.301779,0.51476 -0.874626,0.56834 -1.377035,0.35469 -0.748583,-0.31817 -1.494316,-0.63123 -2.242898,-0.94931 0.04711,0.40338 0.09922,0.80619 0.146049,1.21012 0.06309,0.54346 -0.503077,1.00147 -1.001481,1.00147 -0.593544,0 -0.93872,-0.45934 -1.00148,-1.00147 -0.05126,-0.4421 -0.105222,-0.8827 -0.156481,-1.32488 -0.522452,0.18327 -1.02383,0.35012 -1.335307,0.47988 -0.788498,0.32848 -3.082973,0.98596 -4.725734,1.31444 -1.643095,0.32883 -3.023302,0.92236 -3.943328,1.71087 -0.920027,0.78883 -0.924367,2.69581 -0.792839,3.48431 0.131527,0.78883 1.575245,2.75407 1.575245,2.75407 l 24.379783,-0.2608 c 0,0 0.271234,-1.25177 0.271234,-1.90908 0,-0.65729 -0.269315,-1.64092 -0.532036,-2.23246 -0.262722,-0.59154 -0.591457,-2.69173 -0.657222,-3.3487 -0.06577,-0.65697 0.135618,-8.22048 0.135618,-8.22048 0,0 -7.754462,-1.77028 -8.345669,-1.83605 -0.295937,-0.0327 -0.711508,-0.0478 -1.1058,-0.0313 z"
       style="fill:#ffffff;fill-opacity:1;fill-rule:evenodd"
       inkscape:connector-curvature="0" /><circle
       id="circle4244"
       r="2.5631216"
       cy="252.27196"
       cx="-39.042854"
       stroke-miterlimit="3.8637"
       style="fill:none;stroke:#ffffff;stroke-width:2.68256497;stroke-miterlimit:3.86369991;stroke-opacity:1" /><circle
       id="circle4246"
       r="2.5627878"
       cy="252.27196"
       cx="-29.505091"
       stroke-miterlimit="3.8637"
       style="fill:none;stroke:#ffffff;stroke-width:2.68256497;stroke-miterlimit:3.86369991;stroke-opacity:1" /><circle
       id="circle4248"
       r="2.5627878"
       cy="252.27196"
       cx="-19.966993"
       stroke-miterlimit="3.8637"
       style="fill:none;stroke:#ffffff;stroke-width:2.68256497;stroke-miterlimit:3.86369991;stroke-opacity:1;fill-opacity:1" /></g></svg>