<?xml version="1.0" encoding="UTF-8" standalone="no"?>
<!-- Generator: Adobe Illustrator 15.0.0, SVG Export Plug-In . SVG Version: 6.00 Build 0)  -->

<svg
   xmlns:dc="http://purl.org/dc/elements/1.1/"
   xmlns:cc="http://creativecommons.org/ns#"
   xmlns:rdf="http://www.w3.org/1999/02/22-rdf-syntax-ns#"
   xmlns:svg="http://www.w3.org/2000/svg"
   xmlns="http://www.w3.org/2000/svg"
   xmlns:sodipodi="http://sodipodi.sourceforge.net/DTD/sodipodi-0.dtd"
   xmlns:inkscape="http://www.inkscape.org/namespaces/inkscape"
   version="1.1"
   x="0px"
   y="0px"
   width="40px"
   height="40px"
   viewBox="0 0 40 40"
   enable-background="new 0 0 40 40"
   xml:space="preserve"
   id="svg2"
   inkscape:version="0.91 r13725"
   sodipodi:docname="soccerhalle.svg"
   inkscape:export-filename="G:\AG_GDI-HH\Icons\sportanlagen\soccerhalle.png"
   inkscape:export-xdpi="90"
   inkscape:export-ydpi="90"><metadata
     id="metadata29"><rdf:RDF><cc:Work
         rdf:about=""><dc:format>image/svg+xml</dc:format><dc:type
           rdf:resource="http://purl.org/dc/dcmitype/StillImage" /><dc:title></dc:title></cc:Work></rdf:RDF></metadata><defs
     id="defs27" /><sodipodi:namedview
     pagecolor="#ffffff"
     bordercolor="#666666"
     borderopacity="1"
     objecttolerance="10"
     gridtolerance="10"
     guidetolerance="10"
     inkscape:pageopacity="0"
     inkscape:pageshadow="2"
     inkscape:window-width="1817"
     inkscape:window-height="1005"
     id="namedview25"
     showgrid="false"
     inkscape:zoom="20.9"
     inkscape:cx="20"
     inkscape:cy="20"
     inkscape:window-x="1975"
     inkscape:window-y="20"
     inkscape:window-maximized="0"
     inkscape:current-layer="svg2" /><g
     id="Ebene_1"><g
       id="XMLID_1_"><g
         id="g6"><path
           fill="#F2F9D7"
           d="M20,1c10.49,0,19,8.51,19,19s-8.51,19-19,19S1,30.49,1,20S9.51,1,20,1z"
           id="path8" /></g><g
         id="g10"><path
           fill="none"
           stroke="#4D6523"
           stroke-width="2"
           stroke-miterlimit="10"
           d="M39,20c0,10.49-8.51,19-19,19S1,30.49,1,20     S9.51,1,20,1S39,9.51,39,20z"
           id="path12" /></g></g><g
       id="Ebene_6"><path
         fill="#85A044"
         d="M37.721,20.469c-0.677,9.741-8.056,17.549-17.618,17.549S1.955,29.47,1.955,20.475    c0-3.246,0.479-3.972,0.479-3.972s1.667,0.296,1.878-0.727c0.95-4.581,7.997-15.503,21.62-11.005    c0.588,0.194,1.285-1.281,1.285-1.281s1.988,0.919,3.033,1.673C30.622,5.432,38.484,9.485,37.721,20.469z"
         id="path15" /></g><g
       id="Ebene_2"><path
         fill="#6E8630"
         d="M36.823,13.553c0,0,1.671,3.403,1.307,7.235c-1.228,12.915-11.927,17.413-17.364,17.365    C5.31,38.019,2.435,24.181,2.435,24.181c0-0.886,3.266-2.364,7.903-2.812c4.645-0.448,7.399,1.898,9.888,0.279    c0.438-0.285,3.713-4.138,5.81-5.419C28.916,14.47,33.307,13.553,36.823,13.553z"
         id="path18" /></g></g><g
     transform="translate(0.23923448,-0.73291913)"
     id="Ebene_6-4"><circle
       style="clip-rule:evenodd;fill-rule:evenodd"
       cx="20"
       cy="21.02"
       r="11"
       id="circle17" /><path
       style="clip-rule:evenodd;fill:#ffffff;fill-rule:evenodd"
       inkscape:connector-curvature="0"
       d="m 19.803,15.127 -2.208,-2.563 c 0,0 -0.113,-1.876 2.129,-2.09 0.527,-0.05 3.548,0.034 4.967,1.301 1.104,0.986 -0.748,3.115 -0.748,3.115 l -4.14,0.237 z"
       id="path19" /><path
       style="clip-rule:evenodd;fill:#ffffff;fill-rule:evenodd"
       inkscape:connector-curvature="0"
       d="m 9.985,20.962 -0.433,0.039 c 0,0 -0.553,-1.222 1.025,-4.652 0.627,-1.365 1.853,-3.115 2.287,-2.8 0.18,0.131 0.811,0.623 0.552,0.986 -1.183,1.656 -1.577,4.297 -1.577,4.297 l -1.854,2.13 z"
       id="path21" /><path
       style="clip-rule:evenodd;fill:#ffffff;fill-rule:evenodd"
       inkscape:connector-curvature="0"
       d="m 10.262,23.564 c 0.034,0.201 0.814,1.896 0.946,2.404 0.19,0.732 0.123,1.318 -0.473,0 C 9.631,23.524 9.591,22.263 9.591,22.263 l 0.04,-0.633 c 0,0.001 0.547,1.433 0.631,1.934 z"
       id="path23" /><path
       style="clip-rule:evenodd;fill:#ffffff;fill-rule:evenodd"
       inkscape:connector-curvature="0"
       d="m 11.878,27.546 -0.197,-1.183 2.089,-0.591 c 0,0 1.814,1.616 3.548,2.443 0.406,0.194 0.437,1.665 0.67,2.248 0.262,0.652 -1.672,0.258 -1.813,0.197 -3.39,-1.458 -4.297,-3.114 -4.297,-3.114 z"
       id="path25" /><path
       style="clip-rule:evenodd;fill:#ffffff;fill-rule:evenodd"
       inkscape:connector-curvature="0"
       d="m 20.592,26.481 c -0.484,0.689 -2.083,1.37 -2.918,1.262 -1.066,-0.138 -3.1,-1.475 -3.47,-2.484 -0.296,-0.81 0.631,-3.232 0.631,-3.232 0,0 2.601,-2.097 3.667,-2.05 0.97,0.042 3.076,1.971 3.076,1.971 0,0 -0.314,3.577 -0.986,4.533 z"
       id="path27" /><path
       style="clip-rule:evenodd;fill:#ffffff;fill-rule:evenodd"
       inkscape:connector-curvature="0"
       d="m 22.957,30.543 2.089,-2.09 3.549,-2.563 0.986,-0.079 c 0,0 -1.616,2.563 -3.549,3.982 -1.604,1.179 -3.075,0.75 -3.075,0.75 z"
       id="path29" /><path
       style="clip-rule:evenodd;fill:#ffffff;fill-rule:evenodd"
       inkscape:connector-curvature="0"
       d="m 20.236,31.489 c -0.892,0.013 -2.602,-0.236 -2.602,-0.236 0,0 1.538,-0.513 2.838,-0.474 1.065,0.032 2.563,0.275 2.563,0.275 -1.209,0.25 -1.445,0.415 -2.799,0.435 z"
       id="path31" /><path
       style="clip-rule:evenodd;fill:#ffffff;fill-rule:evenodd"
       inkscape:connector-curvature="0"
       d="m 28.24,25.339 c -0.39,0.747 -2.91,2.592 -3.746,2.483 -1.065,-0.138 -2.061,-0.623 -2.838,-1.341 -0.514,-0.473 0.63,-4.691 0.63,-4.691 0,0 1.813,-1.302 2.523,-1.577 0.905,-0.352 3.785,1.893 3.785,1.893 0,0 0.159,2.247 -0.354,3.233 z"
       id="path33" /><path
       style="clip-rule:evenodd;fill:#ffffff;fill-rule:evenodd"
       inkscape:connector-curvature="0"
       d="m 18.462,18.951 c -0.04,0.434 -2.76,1.656 -3.548,2.011 -0.683,0.308 -1.996,-1.12 -2.366,-2.129 -0.296,-0.81 0.842,-3.625 1.577,-4.495 0.54,-0.64 1.655,-1.467 2.72,-1.419 0.97,0.042 2.563,2.681 2.563,2.681 0,0 -0.846,2.251 -0.946,3.351 z"
       id="path35" /><path
       style="clip-rule:evenodd;fill:#ffffff;fill-rule:evenodd"
       inkscape:connector-curvature="0"
       d="m 30.094,19.463 c -0.484,0.689 -0.713,2.328 -1.381,1.814 -1.024,-0.789 -2.76,-1.183 -3.193,-1.893 -0.449,-0.735 -1.183,-4.061 -1.183,-4.061 0,0 1.302,-2.089 2.09,-2.129 0.971,-0.049 1.724,1.083 2.247,1.853 0.65,0.954 2.092,3.46 1.42,4.416 z"
       id="path37" /></g></svg>